<svg xmlns="http://www.w3.org/2000/svg" xmlns:xlink="http://www.w3.org/1999/xlink" width="292" zoomAndPan="magnify" viewBox="0 0 218.87999 60.75" height="81" preserveAspectRatio="xMidYMid meet" version="1.0"><defs><g/><clipPath id="46bae3d0d6"><path d="M 112.472656 29.066406 L 114.710938 29.066406 L 114.710938 30.5625 L 112.472656 30.5625 Z M 112.472656 29.066406 " clip-rule="nonzero"/></clipPath></defs><g clip-path="url(#46bae3d0d6)"><path fill="#ffffff" d="M 114.359375 29.707031 C 114.363281 29.675781 114.371094 29.644531 114.371094 29.613281 C 114.371094 29.414062 114.207031 29.25 114.003906 29.25 C 113.90625 29.25 113.816406 29.289062 113.75 29.355469 C 113.6875 29.21875 113.550781 29.121094 113.390625 29.121094 C 113.191406 29.121094 113.027344 29.269531 113 29.460938 C 112.957031 29.433594 112.910156 29.417969 112.859375 29.417969 C 112.710938 29.417969 112.59375 29.535156 112.59375 29.683594 C 112.59375 29.773438 112.640625 29.851562 112.707031 29.898438 C 112.601562 29.957031 112.53125 30.066406 112.53125 30.195312 C 112.53125 30.378906 112.679688 30.53125 112.867188 30.53125 C 112.917969 30.53125 112.96875 30.515625 113.015625 30.496094 C 113.042969 30.660156 113.1875 30.785156 113.363281 30.785156 C 113.5 30.785156 113.621094 30.703125 113.679688 30.585938 C 113.730469 30.652344 113.808594 30.699219 113.902344 30.699219 C 114.054688 30.699219 114.175781 30.574219 114.175781 30.421875 C 114.175781 30.402344 114.175781 30.386719 114.171875 30.367188 C 114.183594 30.367188 114.199219 30.371094 114.214844 30.371094 C 114.40625 30.371094 114.5625 30.214844 114.5625 30.023438 C 114.5625 29.882812 114.476562 29.761719 114.359375 29.707031 " fill-opacity="1" fill-rule="nonzero"/><path fill="#ffffff" d="M 113.390625 29.066406 C 113.191406 29.066406 113.019531 29.199219 112.960938 29.378906 C 112.925781 29.367188 112.894531 29.363281 112.859375 29.363281 C 112.683594 29.363281 112.539062 29.507812 112.539062 29.683594 C 112.539062 29.761719 112.566406 29.835938 112.617188 29.890625 C 112.527344 29.964844 112.476562 30.074219 112.476562 30.195312 C 112.476562 30.410156 112.652344 30.585938 112.867188 30.585938 C 112.90625 30.585938 112.941406 30.578125 112.976562 30.570312 C 113.035156 30.730469 113.1875 30.839844 113.363281 30.839844 C 113.492188 30.839844 113.613281 30.777344 113.6875 30.675781 C 113.75 30.726562 113.824219 30.753906 113.902344 30.753906 C 114.082031 30.753906 114.230469 30.605469 114.234375 30.425781 C 114.445312 30.414062 114.617188 30.238281 114.617188 30.023438 C 114.617188 29.878906 114.539062 29.75 114.421875 29.675781 C 114.421875 29.65625 114.425781 29.636719 114.425781 29.613281 C 114.425781 29.382812 114.238281 29.195312 114.003906 29.195312 C 113.917969 29.195312 113.835938 29.222656 113.765625 29.269531 C 113.683594 29.144531 113.542969 29.066406 113.390625 29.066406 Z M 113.390625 29.121094 C 113.550781 29.121094 113.6875 29.21875 113.75 29.355469 C 113.816406 29.289062 113.90625 29.25 114.003906 29.25 C 114.207031 29.25 114.371094 29.414062 114.371094 29.613281 C 114.371094 29.644531 114.363281 29.675781 114.359375 29.707031 C 114.476562 29.761719 114.5625 29.882812 114.5625 30.023438 C 114.5625 30.214844 114.40625 30.371094 114.214844 30.371094 C 114.199219 30.371094 114.183594 30.367188 114.171875 30.367188 C 114.175781 30.386719 114.175781 30.402344 114.175781 30.421875 C 114.175781 30.574219 114.054688 30.699219 113.902344 30.699219 C 113.808594 30.699219 113.730469 30.652344 113.679688 30.585938 C 113.621094 30.703125 113.5 30.785156 113.363281 30.785156 C 113.1875 30.785156 113.042969 30.660156 113.015625 30.496094 C 112.96875 30.515625 112.917969 30.53125 112.867188 30.53125 C 112.679688 30.53125 112.53125 30.378906 112.53125 30.195312 C 112.53125 30.066406 112.601562 29.957031 112.707031 29.898438 C 112.640625 29.851562 112.59375 29.773438 112.59375 29.683594 C 112.59375 29.535156 112.710938 29.417969 112.859375 29.417969 C 112.910156 29.417969 112.957031 29.433594 113 29.460938 C 113.027344 29.269531 113.191406 29.121094 113.390625 29.121094 " fill-opacity="1" fill-rule="nonzero"/></g><g fill="#ffffff" fill-opacity="1"><g transform="translate(9.639739, 40.61533)"><g><path d="M 3.296875 0 L 3.296875 -24.765625 L 6.40625 -24.765625 L 6.40625 -2.859375 L 19.875 -2.859375 L 19.875 0 Z M 3.296875 0 "/></g></g></g><g fill="#ffffff" fill-opacity="1"><g transform="translate(30.151257, 40.61533)"><g><path d="M 10.578125 0.421875 C 8.828125 0.421875 7.269531 0.0390625 5.90625 -0.71875 C 4.539062 -1.488281 3.46875 -2.5625 2.6875 -3.9375 C 1.90625 -5.320312 1.515625 -6.910156 1.515625 -8.703125 C 1.515625 -10.515625 1.910156 -12.101562 2.703125 -13.46875 C 3.492188 -14.84375 4.570312 -15.914062 5.9375 -16.6875 C 7.3125 -17.46875 8.859375 -17.859375 10.578125 -17.859375 C 12.347656 -17.859375 13.921875 -17.46875 15.296875 -16.6875 C 16.679688 -15.914062 17.757812 -14.84375 18.53125 -13.46875 C 19.3125 -12.101562 19.703125 -10.515625 19.703125 -8.703125 C 19.703125 -6.910156 19.304688 -5.320312 18.515625 -3.9375 C 17.722656 -2.5625 16.632812 -1.488281 15.25 -0.71875 C 13.875 0.0390625 12.316406 0.421875 10.578125 0.421875 Z M 10.578125 -2.296875 C 11.773438 -2.296875 12.835938 -2.566406 13.765625 -3.109375 C 14.703125 -3.648438 15.441406 -4.40625 15.984375 -5.375 C 16.523438 -6.34375 16.796875 -7.453125 16.796875 -8.703125 C 16.796875 -9.992188 16.523438 -11.125 15.984375 -12.09375 C 15.441406 -13.0625 14.703125 -13.816406 13.765625 -14.359375 C 12.835938 -14.898438 11.785156 -15.171875 10.609375 -15.171875 C 9.429688 -15.171875 8.367188 -14.898438 7.421875 -14.359375 C 6.484375 -13.816406 5.742188 -13.0625 5.203125 -12.09375 C 4.660156 -11.125 4.390625 -9.992188 4.390625 -8.703125 C 4.390625 -7.453125 4.660156 -6.34375 5.203125 -5.375 C 5.742188 -4.40625 6.476562 -3.648438 7.40625 -3.109375 C 8.34375 -2.566406 9.398438 -2.296875 10.578125 -2.296875 Z M 10.578125 -2.296875 "/></g></g></g><g fill="#ffffff" fill-opacity="1"><g transform="translate(51.370069, 40.61533)"><g><path d="M 10.6875 0.421875 C 9.03125 0.421875 7.503906 0.0625 6.109375 -0.65625 C 4.722656 -1.375 3.617188 -2.414062 2.796875 -3.78125 C 1.972656 -5.15625 1.5625 -6.804688 1.5625 -8.734375 C 1.5625 -10.671875 1.96875 -12.316406 2.78125 -13.671875 C 3.59375 -15.023438 4.6875 -16.0625 6.0625 -16.78125 C 7.445312 -17.5 8.988281 -17.859375 10.6875 -17.859375 C 11.882812 -17.859375 13 -17.644531 14.03125 -17.21875 C 15.070312 -16.800781 16.066406 -16.144531 17.015625 -15.25 L 15.140625 -13.34375 C 14.546875 -13.945312 13.859375 -14.390625 13.078125 -14.671875 C 12.304688 -14.960938 11.53125 -15.109375 10.75 -15.109375 C 9.59375 -15.109375 8.535156 -14.851562 7.578125 -14.34375 C 6.628906 -13.832031 5.867188 -13.097656 5.296875 -12.140625 C 4.734375 -11.191406 4.453125 -10.054688 4.453125 -8.734375 C 4.453125 -7.367188 4.734375 -6.207031 5.296875 -5.25 C 5.867188 -4.300781 6.628906 -3.578125 7.578125 -3.078125 C 8.535156 -2.578125 9.582031 -2.328125 10.71875 -2.328125 C 11.539062 -2.328125 12.351562 -2.472656 13.15625 -2.765625 C 13.957031 -3.066406 14.664062 -3.535156 15.28125 -4.171875 L 17.1875 -2.234375 L 17.15625 -2.265625 C 16.238281 -1.316406 15.226562 -0.628906 14.125 -0.203125 C 13.03125 0.210938 11.882812 0.421875 10.6875 0.421875 Z M 10.6875 0.421875 "/></g></g></g><g fill="#ffffff" fill-opacity="1"><g transform="translate(69.653616, 40.61533)"><g><path d="M 10.5 0.421875 C 8.832031 0.421875 7.316406 0.0546875 5.953125 -0.671875 C 4.597656 -1.398438 3.523438 -2.453125 2.734375 -3.828125 C 1.953125 -5.210938 1.5625 -6.847656 1.5625 -8.734375 C 1.5625 -10.710938 1.96875 -12.378906 2.78125 -13.734375 C 3.59375 -15.097656 4.675781 -16.125 6.03125 -16.8125 C 7.382812 -17.507812 8.890625 -17.859375 10.546875 -17.859375 C 11.929688 -17.859375 13.191406 -17.578125 14.328125 -17.015625 C 15.460938 -16.453125 16.359375 -15.546875 17.015625 -14.296875 L 17.046875 -17.46875 L 19.875 -17.46875 L 19.875 0 L 17.015625 0 L 16.9375 -3.078125 C 16.257812 -1.898438 15.316406 -1.019531 14.109375 -0.4375 C 12.910156 0.132812 11.707031 0.421875 10.5 0.421875 Z M 10.640625 -2.234375 C 12.054688 -2.234375 13.234375 -2.546875 14.171875 -3.171875 C 15.117188 -3.796875 15.828125 -4.601562 16.296875 -5.59375 C 16.773438 -6.582031 17.015625 -7.617188 17.015625 -8.703125 C 17.015625 -9.785156 16.773438 -10.8125 16.296875 -11.78125 C 15.828125 -12.75 15.117188 -13.546875 14.171875 -14.171875 C 13.234375 -14.796875 12.054688 -15.109375 10.640625 -15.109375 C 9.492188 -15.109375 8.441406 -14.851562 7.484375 -14.34375 C 6.523438 -13.832031 5.757812 -13.09375 5.1875 -12.125 C 4.625 -11.164062 4.34375 -10 4.34375 -8.625 C 4.34375 -7.351562 4.625 -6.234375 5.1875 -5.265625 C 5.757812 -4.304688 6.523438 -3.5625 7.484375 -3.03125 C 8.441406 -2.5 9.492188 -2.234375 10.640625 -2.234375 Z M 10.640625 -2.234375 "/></g></g></g><g fill="#ffffff" fill-opacity="1"><g transform="translate(92.216286, 40.61533)"><g><path d="M 2.859375 0 L 2.859375 -24.765625 L 5.734375 -24.765625 L 5.734375 0 Z M 2.859375 0 "/></g></g></g><g fill="#ffffff" fill-opacity="1"><g transform="translate(100.845269, 40.61533)"><g/></g></g><g fill="#ffffff" fill-opacity="1"><g transform="translate(109.933998, 40.61533)"><g><path d="M 14.6875 0.5 C 12.488281 0.5 10.578125 0.144531 8.953125 -0.5625 C 7.328125 -1.269531 5.976562 -2.226562 4.90625 -3.4375 C 3.832031 -4.65625 3.035156 -6.035156 2.515625 -7.578125 C 1.992188 -9.128906 1.734375 -10.726562 1.734375 -12.375 C 1.734375 -14.007812 2.003906 -15.597656 2.546875 -17.140625 C 3.085938 -18.679688 3.898438 -20.054688 4.984375 -21.265625 C 6.066406 -22.484375 7.414062 -23.453125 9.03125 -24.171875 C 10.65625 -24.898438 12.539062 -25.265625 14.6875 -25.265625 C 16.332031 -25.265625 17.9375 -24.953125 19.5 -24.328125 C 21.070312 -23.703125 22.492188 -22.765625 23.765625 -21.515625 L 21.65625 -19.5625 C 20.6875 -20.476562 19.59375 -21.160156 18.375 -21.609375 C 17.164062 -22.054688 15.9375 -22.28125 14.6875 -22.28125 C 13.03125 -22.28125 11.582031 -22.003906 10.34375 -21.453125 C 9.101562 -20.898438 8.078125 -20.148438 7.265625 -19.203125 C 6.453125 -18.265625 5.84375 -17.191406 5.4375 -15.984375 C 5.039062 -14.785156 4.84375 -13.550781 4.84375 -12.28125 C 4.863281 -11.03125 5.070312 -9.8125 5.46875 -8.625 C 5.875 -7.445312 6.476562 -6.390625 7.28125 -5.453125 C 8.082031 -4.523438 9.097656 -3.785156 10.328125 -3.234375 C 11.554688 -2.679688 13.007812 -2.40625 14.6875 -2.40625 C 15.9375 -2.40625 17.191406 -2.648438 18.453125 -3.140625 C 19.710938 -3.640625 20.8125 -4.347656 21.75 -5.265625 L 23.90625 -3.140625 C 22.613281 -1.921875 21.179688 -1.007812 19.609375 -0.40625 C 18.046875 0.195312 16.40625 0.5 14.6875 0.5 Z M 14.6875 0.5 "/></g></g></g><g fill="#ffffff" fill-opacity="1"><g transform="translate(135.042925, 40.61533)"><g><path d="M 2.859375 0 L 2.859375 -24.765625 L 5.734375 -24.765625 L 5.734375 0 Z M 2.859375 0 "/></g></g></g><g fill="#ffffff" fill-opacity="1"><g transform="translate(143.671909, 40.61533)"><g><path d="M 10.578125 0.421875 C 8.828125 0.421875 7.269531 0.0390625 5.90625 -0.71875 C 4.539062 -1.488281 3.46875 -2.5625 2.6875 -3.9375 C 1.90625 -5.320312 1.515625 -6.910156 1.515625 -8.703125 C 1.515625 -10.515625 1.910156 -12.101562 2.703125 -13.46875 C 3.492188 -14.84375 4.570312 -15.914062 5.9375 -16.6875 C 7.3125 -17.46875 8.859375 -17.859375 10.578125 -17.859375 C 12.347656 -17.859375 13.921875 -17.46875 15.296875 -16.6875 C 16.679688 -15.914062 17.757812 -14.84375 18.53125 -13.46875 C 19.3125 -12.101562 19.703125 -10.515625 19.703125 -8.703125 C 19.703125 -6.910156 19.304688 -5.320312 18.515625 -3.9375 C 17.722656 -2.5625 16.632812 -1.488281 15.25 -0.71875 C 13.875 0.0390625 12.316406 0.421875 10.578125 0.421875 Z M 10.578125 -2.296875 C 11.773438 -2.296875 12.835938 -2.566406 13.765625 -3.109375 C 14.703125 -3.648438 15.441406 -4.40625 15.984375 -5.375 C 16.523438 -6.34375 16.796875 -7.453125 16.796875 -8.703125 C 16.796875 -9.992188 16.523438 -11.125 15.984375 -12.09375 C 15.441406 -13.0625 14.703125 -13.816406 13.765625 -14.359375 C 12.835938 -14.898438 11.785156 -15.171875 10.609375 -15.171875 C 9.429688 -15.171875 8.367188 -14.898438 7.421875 -14.359375 C 6.484375 -13.816406 5.742188 -13.0625 5.203125 -12.09375 C 4.660156 -11.125 4.390625 -9.992188 4.390625 -8.703125 C 4.390625 -7.453125 4.660156 -6.34375 5.203125 -5.375 C 5.742188 -4.40625 6.476562 -3.648438 7.40625 -3.109375 C 8.34375 -2.566406 9.398438 -2.296875 10.578125 -2.296875 Z M 10.578125 -2.296875 "/></g></g></g><g fill="#ffffff" fill-opacity="1"><g transform="translate(164.890721, 40.61533)"><g><path d="M 9.546875 0.421875 C 7.328125 0.421875 5.566406 -0.289062 4.265625 -1.71875 C 2.972656 -3.144531 2.328125 -5.144531 2.328125 -7.71875 L 2.328125 -17.46875 L 5.234375 -17.46875 L 5.234375 -7.71875 C 5.234375 -6.019531 5.632812 -4.6875 6.4375 -3.71875 C 7.238281 -2.75 8.476562 -2.265625 10.15625 -2.265625 C 11.238281 -2.265625 12.164062 -2.53125 12.9375 -3.0625 C 13.71875 -3.59375 14.320312 -4.300781 14.75 -5.1875 C 15.175781 -6.070312 15.390625 -7.039062 15.390625 -8.09375 L 15.390625 -17.46875 L 18.328125 -17.46875 L 18.328125 0 L 15.640625 0 L 15.5 -2.796875 C 14.71875 -1.660156 13.835938 -0.84375 12.859375 -0.34375 C 11.878906 0.144531 10.773438 0.398438 9.546875 0.421875 Z M 9.546875 0.421875 "/></g></g></g><g fill="#ffffff" fill-opacity="1"><g transform="translate(185.968074, 40.61533)"><g><path d="M 10.4375 0.421875 C 8.78125 0.421875 7.28125 0.078125 5.9375 -0.609375 C 4.59375 -1.304688 3.53125 -2.335938 2.75 -3.703125 C 1.976562 -5.078125 1.59375 -6.753906 1.59375 -8.734375 C 1.59375 -10.691406 1.976562 -12.347656 2.75 -13.703125 C 3.53125 -15.054688 4.59375 -16.085938 5.9375 -16.796875 C 7.28125 -17.503906 8.78125 -17.859375 10.4375 -17.859375 C 11.257812 -17.859375 12.085938 -17.722656 12.921875 -17.453125 C 13.765625 -17.179688 14.546875 -16.785156 15.265625 -16.265625 C 15.984375 -15.753906 16.539062 -15.097656 16.9375 -14.296875 L 16.9375 -24.765625 L 19.84375 -24.765625 L 19.875 -24.796875 L 19.875 0 L 17.125 0 L 16.984375 -3.21875 C 16.273438 -2.019531 15.328125 -1.113281 14.140625 -0.5 C 12.960938 0.113281 11.726562 0.421875 10.4375 0.421875 Z M 10.640625 -2.328125 C 11.828125 -2.328125 12.882812 -2.601562 13.8125 -3.15625 C 14.75 -3.71875 15.488281 -4.476562 16.03125 -5.4375 C 16.570312 -6.40625 16.84375 -7.53125 16.84375 -8.8125 C 16.84375 -10.0625 16.5625 -11.160156 16 -12.109375 C 15.445312 -13.066406 14.703125 -13.8125 13.765625 -14.34375 C 12.835938 -14.875 11.785156 -15.140625 10.609375 -15.140625 C 9.484375 -15.140625 8.453125 -14.890625 7.515625 -14.390625 C 6.585938 -13.898438 5.84375 -13.179688 5.28125 -12.234375 C 4.726562 -11.296875 4.453125 -10.140625 4.453125 -8.765625 C 4.453125 -7.359375 4.734375 -6.175781 5.296875 -5.21875 C 5.867188 -4.257812 6.617188 -3.535156 7.546875 -3.046875 C 8.484375 -2.566406 9.515625 -2.328125 10.640625 -2.328125 Z M 10.640625 -2.328125 "/></g></g></g></svg>