<svg xmlns="http://www.w3.org/2000/svg" xmlns:xlink="http://www.w3.org/1999/xlink" width="286" zoomAndPan="magnify" viewBox="0 0 214.5 177.749994" height="237" preserveAspectRatio="xMidYMid meet" version="1.0"><defs><g/><clipPath id="592e1e0d6b"><path d="M 0 0.0820312 L 214 0.0820312 L 214 176.671875 L 0 176.671875 Z M 0 0.0820312 " clip-rule="nonzero"/></clipPath></defs><path fill="#ffffff" d="M 187.839844 63.757812 C 188.59375 60.847656 188.996094 57.792969 188.996094 54.648438 C 188.996094 34.617188 172.753906 18.375 152.722656 18.375 C 142.808594 18.375 133.828125 22.355469 127.28125 28.800781 C 121.082031 15.132812 107.324219 5.621094 91.339844 5.621094 C 71.558594 5.621094 55.179688 20.171875 52.320312 39.152344 C 48.265625 36.601562 43.46875 35.117188 38.324219 35.117188 C 23.796875 35.117188 12.015625 46.894531 12.015625 61.425781 C 12.015625 70.335938 16.453125 78.207031 23.234375 82.96875 C 12.757812 88.625 5.636719 99.703125 5.636719 112.445312 C 5.636719 130.9375 20.628906 145.929688 39.121094 145.929688 C 44.46875 145.929688 49.523438 144.667969 54.007812 142.4375 C 56.886719 158.914062 71.25 171.4375 88.546875 171.4375 C 102.511719 171.4375 114.566406 163.28125 120.210938 151.46875 C 125.21875 158.261719 133.273438 162.667969 142.359375 162.667969 C 157.550781 162.667969 169.863281 150.355469 169.863281 135.167969 C 169.863281 133.304688 169.675781 131.488281 169.324219 129.730469 C 170.675781 129.890625 172.054688 129.984375 173.449219 129.984375 C 192.601562 129.984375 208.128906 114.457031 208.128906 95.304688 C 208.128906 81.289062 199.808594 69.222656 187.839844 63.757812 " fill-opacity="1" fill-rule="nonzero"/><g clip-path="url(#592e1e0d6b)"><path fill="#ffffff" d="M 91.339844 0.0820312 C 71.71875 0.0820312 54.429688 13.0625 48.515625 31.253906 C 45.25 30.148438 41.8125 29.578125 38.324219 29.578125 C 20.765625 29.578125 6.476562 43.863281 6.476562 61.425781 C 6.476562 69.179688 9.320312 76.585938 14.308594 82.324219 C 5.402344 89.660156 0.101562 100.648438 0.101562 112.445312 C 0.101562 133.960938 17.605469 151.464844 39.121094 151.464844 C 42.933594 151.464844 46.652344 150.925781 50.234375 149.859375 C 55.847656 165.90625 71.039062 176.976562 88.546875 176.976562 C 101.480469 176.976562 113.609375 170.703125 121.1875 160.515625 C 127.078125 165.417969 134.578125 168.207031 142.359375 168.207031 C 160.476562 168.207031 175.230469 153.550781 175.398438 135.476562 C 196.671875 134.453125 213.667969 116.828125 213.667969 95.304688 C 213.667969 81.105469 206.105469 67.996094 194.082031 60.792969 C 194.382812 58.761719 194.535156 56.710938 194.535156 54.648438 C 194.535156 31.59375 175.777344 12.839844 152.722656 12.839844 C 144.089844 12.839844 135.835938 15.449219 128.886719 20.292969 C 120.640625 7.828125 106.558594 0.0820312 91.339844 0.0820312 Z M 91.339844 5.621094 C 107.324219 5.621094 121.082031 15.132812 127.28125 28.800781 C 133.828125 22.355469 142.808594 18.375 152.722656 18.375 C 172.753906 18.375 188.996094 34.617188 188.996094 54.648438 C 188.996094 57.792969 188.59375 60.847656 187.839844 63.757812 C 199.808594 69.222656 208.128906 81.289062 208.128906 95.304688 C 208.128906 114.457031 192.601562 129.984375 173.449219 129.984375 C 172.054688 129.984375 170.675781 129.890625 169.324219 129.730469 C 169.675781 131.488281 169.863281 133.304688 169.863281 135.167969 C 169.863281 150.355469 157.550781 162.667969 142.359375 162.667969 C 133.273438 162.667969 125.21875 158.261719 120.210938 151.46875 C 114.566406 163.28125 102.511719 171.4375 88.546875 171.4375 C 71.25 171.4375 56.886719 158.914062 54.007812 142.4375 C 49.523438 144.667969 44.46875 145.929688 39.121094 145.929688 C 20.628906 145.929688 5.636719 130.9375 5.636719 112.445312 C 5.636719 99.703125 12.757812 88.625 23.234375 82.96875 C 16.453125 78.207031 12.015625 70.335938 12.015625 61.425781 C 12.015625 46.894531 23.796875 35.117188 38.324219 35.117188 C 43.46875 35.117188 48.265625 36.601562 52.320312 39.152344 C 55.179688 20.171875 71.558594 5.621094 91.339844 5.621094 " fill-opacity="1" fill-rule="nonzero"/></g><g fill="#ffffff" fill-opacity="1"><g transform="translate(80.238523, 84.540907)"><g><path d="M 2.28125 0.234375 L 2.25 0.21875 L 2.234375 0.171875 L 2.234375 0.140625 L 2.1875 -0.0625 C 2.15625 -0.0625 2.132812 -0.046875 2.125 -0.015625 C 2.125 0.015625 2.113281 0.03125 2.09375 0.03125 C 2.070312 0.03125 2.0625 0.0351562 2.0625 0.046875 L 2.03125 0.046875 C 2.019531 0.046875 1.988281 0.046875 1.9375 0.046875 C 1.882812 0.046875 1.847656 0.03125 1.828125 0 L 1.765625 -0.046875 C 1.703125 -0.00390625 1.65625 0.015625 1.625 0.015625 C 1.601562 0.015625 1.59375 -0.0078125 1.59375 -0.0625 C 1.59375 -0.113281 1.570312 -0.140625 1.53125 -0.140625 C 1.5 -0.140625 1.472656 -0.09375 1.453125 0 C 1.453125 0.03125 1.46875 0.0625 1.5 0.09375 C 1.53125 0.125 1.546875 0.144531 1.546875 0.15625 C 1.546875 0.164062 1.535156 0.171875 1.515625 0.171875 L 1.53125 0.171875 C 1.53125 0.160156 1.507812 0.144531 1.46875 0.125 C 1.4375 0.113281 1.421875 0.101562 1.421875 0.09375 L 1.421875 0.078125 C 1.421875 0.0664062 1.394531 0.046875 1.34375 0.015625 C 1.289062 -0.00390625 1.265625 -0.0195312 1.265625 -0.03125 C 1.265625 -0.09375 1.242188 -0.125 1.203125 -0.125 C 1.171875 -0.125 1.117188 -0.132812 1.046875 -0.15625 C 0.992188 -0.164062 0.957031 -0.179688 0.9375 -0.203125 C 0.914062 -0.234375 0.894531 -0.269531 0.875 -0.3125 C 0.84375 -0.375 0.816406 -0.414062 0.796875 -0.4375 C 0.773438 -0.46875 0.765625 -0.5 0.765625 -0.53125 L 0.765625 -0.5625 C 0.765625 -0.582031 0.753906 -0.59375 0.734375 -0.59375 L 0.71875 -0.59375 C 0.707031 -0.59375 0.703125 -0.617188 0.703125 -0.671875 C 0.703125 -0.722656 0.691406 -0.757812 0.671875 -0.78125 L 0.65625 -0.8125 L 0.703125 -1.046875 C 0.703125 -1.128906 0.6875 -1.191406 0.65625 -1.234375 C 0.625 -1.285156 0.609375 -1.738281 0.609375 -2.59375 L 0.625 -3.921875 C 0.625 -4.054688 0.628906 -4.160156 0.640625 -4.234375 C 0.648438 -4.316406 0.660156 -4.4375 0.671875 -4.59375 C 0.679688 -4.75 0.6875 -4.941406 0.6875 -5.171875 C 0.707031 -5.597656 0.722656 -5.820312 0.734375 -5.84375 C 0.742188 -5.875 0.75 -5.988281 0.75 -6.1875 C 0.75 -6.394531 0.757812 -6.691406 0.78125 -7.078125 C 0.78125 -7.460938 0.78125 -7.773438 0.78125 -8.015625 C 0.789062 -8.265625 0.800781 -8.4375 0.8125 -8.53125 C 0.8125 -8.644531 0.8125 -8.75 0.8125 -8.84375 C 0.8125 -8.9375 0.8125 -9.039062 0.8125 -9.15625 C 0.8125 -9.382812 0.816406 -9.507812 0.828125 -9.53125 C 0.835938 -9.5625 0.863281 -9.578125 0.90625 -9.578125 C 0.957031 -9.578125 1.023438 -9.554688 1.109375 -9.515625 C 1.191406 -9.484375 1.257812 -9.46875 1.3125 -9.46875 C 1.34375 -9.46875 1.378906 -9.484375 1.421875 -9.515625 L 1.515625 -9.46875 L 1.5625 -9.5 C 1.570312 -9.5 1.601562 -9.503906 1.65625 -9.515625 C 1.707031 -9.523438 1.757812 -9.535156 1.8125 -9.546875 C 1.875 -9.566406 1.925781 -9.582031 1.96875 -9.59375 C 2.019531 -9.601562 2.050781 -9.609375 2.0625 -9.609375 C 2.175781 -9.628906 2.273438 -9.664062 2.359375 -9.71875 C 2.441406 -9.78125 2.488281 -9.8125 2.5 -9.8125 C 2.507812 -9.8125 2.546875 -9.785156 2.609375 -9.734375 C 2.671875 -9.691406 2.75 -9.671875 2.84375 -9.671875 L 3.09375 -9.6875 C 3.238281 -9.675781 3.332031 -9.660156 3.375 -9.640625 C 3.425781 -9.617188 3.472656 -9.609375 3.515625 -9.609375 C 3.554688 -9.609375 3.601562 -9.570312 3.65625 -9.5 C 3.664062 -9.5 3.679688 -9.46875 3.703125 -9.40625 C 3.722656 -9.351562 3.757812 -9.328125 3.8125 -9.328125 L 3.890625 -9.328125 L 3.890625 -9.21875 L 3.96875 -8.96875 C 3.988281 -8.914062 4 -8.863281 4 -8.8125 C 4.007812 -8.757812 4.019531 -8.707031 4.03125 -8.65625 C 4.03125 -8.5625 4.039062 -8.503906 4.0625 -8.484375 C 4.09375 -8.460938 4.109375 -8.414062 4.109375 -8.34375 L 4.09375 -8.15625 L 4.109375 -8.03125 C 4.117188 -7.96875 4.117188 -7.875 4.109375 -7.75 C 4.109375 -7.632812 4.097656 -7.484375 4.078125 -7.296875 C 4.066406 -7.191406 4.039062 -7.078125 4 -6.953125 C 3.925781 -6.742188 3.890625 -6.554688 3.890625 -6.390625 C 3.890625 -6.335938 3.898438 -6.3125 3.921875 -6.3125 C 3.953125 -6.3125 3.96875 -6.300781 3.96875 -6.28125 C 3.96875 -6.257812 3.953125 -6.226562 3.921875 -6.1875 C 3.890625 -6.15625 3.867188 -6.070312 3.859375 -5.9375 C 3.859375 -5.800781 3.84375 -5.726562 3.8125 -5.71875 C 3.769531 -5.6875 3.75 -5.582031 3.75 -5.40625 C 3.75 -5.332031 3.742188 -5.265625 3.734375 -5.203125 C 3.734375 -5.140625 3.726562 -5.082031 3.71875 -5.03125 L 3.703125 -4.90625 C 3.703125 -4.851562 3.710938 -4.820312 3.734375 -4.8125 C 3.753906 -4.800781 3.765625 -4.785156 3.765625 -4.765625 L 3.765625 -4.609375 C 3.765625 -4.546875 3.757812 -4.507812 3.75 -4.5 L 3.734375 -4.484375 L 3.8125 -4.421875 L 3.75 -4.375 C 3.632812 -4.25 3.578125 -4.148438 3.578125 -4.078125 C 3.578125 -4.066406 3.585938 -4.0625 3.609375 -4.0625 L 3.671875 -4.0625 L 3.65625 -4.0625 C 3.65625 -4.050781 3.644531 -4.035156 3.625 -4.015625 C 3.613281 -3.992188 3.597656 -3.96875 3.578125 -3.9375 C 3.554688 -3.914062 3.546875 -3.894531 3.546875 -3.875 C 3.546875 -3.820312 3.5625 -3.796875 3.59375 -3.796875 C 3.632812 -3.796875 3.664062 -3.707031 3.6875 -3.53125 C 3.6875 -3.46875 3.679688 -3.425781 3.671875 -3.40625 C 3.617188 -3.363281 3.59375 -3.28125 3.59375 -3.15625 C 3.59375 -3.019531 3.625 -2.929688 3.6875 -2.890625 C 3.75 -2.859375 3.894531 -2.84375 4.125 -2.84375 C 4.300781 -2.84375 4.394531 -2.847656 4.40625 -2.859375 C 4.425781 -2.878906 4.664062 -2.894531 5.125 -2.90625 C 5.582031 -2.914062 5.820312 -2.929688 5.84375 -2.953125 C 5.863281 -2.972656 5.9375 -2.984375 6.0625 -2.984375 C 6.320312 -3.015625 6.484375 -3.066406 6.546875 -3.140625 C 6.554688 -3.160156 6.566406 -3.171875 6.578125 -3.171875 C 6.628906 -3.171875 6.65625 -3.160156 6.65625 -3.140625 C 6.65625 -3.117188 6.628906 -3.066406 6.578125 -2.984375 L 6.4375 -2.8125 C 6.394531 -2.78125 6.375 -2.757812 6.375 -2.75 L 6.390625 -2.75 C 6.398438 -2.75 6.421875 -2.75 6.453125 -2.75 C 6.492188 -2.757812 6.570312 -2.8125 6.6875 -2.90625 C 6.75 -2.957031 6.816406 -2.984375 6.890625 -2.984375 L 6.96875 -2.984375 C 7.007812 -2.972656 7.03125 -2.941406 7.03125 -2.890625 C 7.039062 -2.835938 7.03125 -2.796875 7 -2.765625 C 6.925781 -2.691406 6.890625 -2.632812 6.890625 -2.59375 L 7.078125 -2.6875 C 7.085938 -2.6875 7.097656 -2.664062 7.109375 -2.625 C 7.117188 -2.59375 7.148438 -2.578125 7.203125 -2.578125 C 7.253906 -2.578125 7.28125 -2.5625 7.28125 -2.53125 C 7.28125 -2.5 7.25 -2.46875 7.1875 -2.4375 C 7.125 -2.414062 7.09375 -2.390625 7.09375 -2.359375 C 7.09375 -2.335938 7.113281 -2.328125 7.15625 -2.328125 C 7.195312 -2.328125 7.242188 -2.296875 7.296875 -2.234375 C 7.347656 -2.179688 7.375 -2.109375 7.375 -2.015625 C 7.363281 -1.929688 7.34375 -1.890625 7.3125 -1.890625 C 7.28125 -1.890625 7.265625 -1.882812 7.265625 -1.875 C 7.265625 -1.863281 7.265625 -1.851562 7.265625 -1.84375 C 7.273438 -1.832031 7.296875 -1.804688 7.328125 -1.765625 L 7.359375 -1.71875 C 7.234375 -1.71875 7.171875 -1.707031 7.171875 -1.6875 C 7.171875 -1.632812 7.222656 -1.601562 7.328125 -1.59375 C 7.429688 -1.582031 7.507812 -1.578125 7.5625 -1.578125 L 7.578125 -1.5625 C 7.578125 -1.539062 7.515625 -1.53125 7.390625 -1.53125 C 7.273438 -1.53125 7.203125 -1.515625 7.171875 -1.484375 C 7.148438 -1.453125 7.140625 -1.429688 7.140625 -1.421875 C 7.140625 -1.410156 7.160156 -1.40625 7.203125 -1.40625 L 7.5625 -1.390625 C 7.5625 -1.347656 7.488281 -1.328125 7.34375 -1.328125 L 7.1875 -1.3125 C 7.1875 -1.289062 7.300781 -1.28125 7.53125 -1.28125 L 7.53125 -1.265625 L 7.5 -1.25 C 7.476562 -1.226562 7.445312 -1.207031 7.40625 -1.1875 C 7.375 -1.164062 7.351562 -1.140625 7.34375 -1.109375 C 7.363281 -1.097656 7.398438 -1.09375 7.453125 -1.09375 C 7.546875 -1.09375 7.601562 -1.082031 7.625 -1.0625 C 7.65625 -1.050781 7.671875 -1.039062 7.671875 -1.03125 C 7.671875 -1.019531 7.640625 -1.007812 7.578125 -1 C 7.535156 -1 7.503906 -1.015625 7.484375 -1.046875 L 7.46875 -1.0625 C 7.445312 -1.0625 7.421875 -1.046875 7.390625 -1.015625 C 7.359375 -0.992188 7.34375 -0.972656 7.34375 -0.953125 C 7.34375 -0.921875 7.382812 -0.90625 7.46875 -0.90625 C 7.5 -0.90625 7.519531 -0.898438 7.53125 -0.890625 L 7.453125 -0.859375 C 7.367188 -0.859375 7.3125 -0.867188 7.28125 -0.890625 L 7.234375 -0.90625 C 7.222656 -0.90625 7.21875 -0.898438 7.21875 -0.890625 L 7.3125 -0.828125 L 7.296875 -0.78125 C 7.285156 -0.769531 7.265625 -0.765625 7.234375 -0.765625 L 7.171875 -0.765625 C 7.097656 -0.765625 7.0625 -0.753906 7.0625 -0.734375 L 7.0625 -0.71875 C 7.0625 -0.695312 7.066406 -0.6875 7.078125 -0.6875 L 7.125 -0.65625 C 7.125 -0.644531 7.09375 -0.632812 7.03125 -0.625 C 6.976562 -0.625 6.953125 -0.597656 6.953125 -0.546875 C 6.941406 -0.535156 6.914062 -0.519531 6.875 -0.5 C 6.84375 -0.476562 6.8125 -0.46875 6.78125 -0.46875 L 6.625 -0.5 L 6.515625 -0.484375 C 6.472656 -0.484375 6.394531 -0.515625 6.28125 -0.578125 L 6.234375 -0.546875 C 6.210938 -0.523438 6.164062 -0.507812 6.09375 -0.5 C 6.03125 -0.488281 5.972656 -0.46875 5.921875 -0.4375 L 5.859375 -0.375 C 5.804688 -0.445312 5.765625 -0.484375 5.734375 -0.484375 C 5.722656 -0.484375 5.675781 -0.472656 5.59375 -0.453125 C 5.519531 -0.441406 5.40625 -0.410156 5.25 -0.359375 C 5.050781 -0.316406 4.867188 -0.285156 4.703125 -0.265625 C 4.546875 -0.242188 4.398438 -0.226562 4.265625 -0.21875 C 3.921875 -0.207031 3.664062 -0.175781 3.5 -0.125 L 3.421875 -0.109375 L 3.421875 -0.125 C 3.421875 -0.132812 3.429688 -0.144531 3.453125 -0.15625 L 3.46875 -0.171875 L 3.453125 -0.171875 C 3.421875 -0.171875 3.40625 -0.175781 3.40625 -0.1875 C 3.40625 -0.207031 3.394531 -0.21875 3.375 -0.21875 C 3.34375 -0.207031 3.3125 -0.203125 3.28125 -0.203125 C 3.257812 -0.203125 3.222656 -0.195312 3.171875 -0.1875 L 2.984375 -0.15625 L 2.984375 -0.109375 C 2.984375 -0.0664062 2.96875 -0.0390625 2.9375 -0.03125 L 2.84375 -0.015625 C 2.820312 -0.015625 2.8125 -0.03125 2.8125 -0.0625 C 2.8125 -0.101562 2.796875 -0.125 2.765625 -0.125 C 2.742188 -0.125 2.710938 -0.113281 2.671875 -0.09375 C 2.628906 -0.0703125 2.601562 -0.0625 2.59375 -0.0625 C 2.582031 -0.0625 2.570312 -0.0625 2.5625 -0.0625 C 2.550781 -0.0625 2.535156 -0.0507812 2.515625 -0.03125 L 2.421875 0.015625 C 2.378906 0.0234375 2.359375 0.046875 2.359375 0.078125 L 2.390625 0.15625 C 2.390625 0.207031 2.351562 0.234375 2.28125 0.234375 Z M 2.28125 0.234375 "/></g></g></g><g fill="#ffffff" fill-opacity="1"><g transform="translate(90.135023, 84.540907)"><g><path d="M 5.109375 0.1875 L 4.9375 0.125 L 4.609375 0.0625 C 4.503906 0.0507812 4.453125 0.0351562 4.453125 0.015625 L 4.453125 0 C 4.453125 -0.0078125 4.484375 -0.015625 4.546875 -0.015625 C 4.597656 -0.015625 4.625 -0.0195312 4.625 -0.03125 C 4.625 -0.0390625 4.609375 -0.0546875 4.578125 -0.078125 C 4.554688 -0.0976562 4.523438 -0.117188 4.484375 -0.140625 C 4.453125 -0.160156 4.425781 -0.175781 4.40625 -0.1875 C 4.394531 -0.207031 4.390625 -0.234375 4.390625 -0.265625 C 4.359375 -0.265625 4.34375 -0.242188 4.34375 -0.203125 L 4.359375 -0.109375 L 4.359375 0.015625 C 4.222656 -0.078125 4.132812 -0.125 4.09375 -0.125 C 4.039062 -0.125 3.988281 -0.113281 3.9375 -0.09375 C 3.882812 -0.0703125 3.847656 -0.0625 3.828125 -0.0625 L 3.796875 -0.078125 C 3.742188 -0.109375 3.6875 -0.144531 3.625 -0.1875 C 3.5625 -0.238281 3.5 -0.273438 3.4375 -0.296875 L 3.34375 -0.328125 L 3.390625 -0.34375 C 3.421875 -0.34375 3.453125 -0.34375 3.484375 -0.34375 C 3.515625 -0.351562 3.53125 -0.363281 3.53125 -0.375 C 3.53125 -0.394531 3.460938 -0.421875 3.328125 -0.453125 C 3.265625 -0.453125 3.210938 -0.523438 3.171875 -0.671875 C 3.148438 -0.679688 3.125 -0.6875 3.09375 -0.6875 C 3.070312 -0.6875 3.039062 -0.691406 3 -0.703125 C 2.925781 -0.703125 2.878906 -0.695312 2.859375 -0.6875 L 2.828125 -0.6875 C 2.816406 -0.695312 2.800781 -0.703125 2.78125 -0.703125 C 2.757812 -0.703125 2.734375 -0.710938 2.703125 -0.734375 C 2.617188 -0.734375 2.53125 -0.769531 2.4375 -0.84375 C 2.351562 -0.914062 2.273438 -0.972656 2.203125 -1.015625 C 2.128906 -1.046875 2.054688 -1.097656 1.984375 -1.171875 C 1.921875 -1.242188 1.84375 -1.328125 1.75 -1.421875 C 1.664062 -1.515625 1.609375 -1.5625 1.578125 -1.5625 C 1.546875 -1.5625 1.523438 -1.566406 1.515625 -1.578125 C 1.492188 -1.597656 1.460938 -1.648438 1.421875 -1.734375 C 1.378906 -1.816406 1.328125 -1.921875 1.265625 -2.046875 C 1.203125 -2.171875 1.15625 -2.234375 1.125 -2.234375 C 1.09375 -2.234375 1.054688 -2.242188 1.015625 -2.265625 C 0.984375 -2.296875 0.96875 -2.328125 0.96875 -2.359375 C 0.96875 -2.390625 0.941406 -2.425781 0.890625 -2.46875 C 0.816406 -2.582031 0.78125 -2.675781 0.78125 -2.75 L 0.78125 -2.78125 C 0.78125 -2.789062 0.773438 -2.828125 0.765625 -2.890625 C 0.753906 -2.953125 0.738281 -3.019531 0.71875 -3.09375 C 0.707031 -3.164062 0.691406 -3.234375 0.671875 -3.296875 C 0.648438 -3.367188 0.640625 -3.410156 0.640625 -3.421875 C 0.609375 -3.453125 0.585938 -3.503906 0.578125 -3.578125 C 0.578125 -3.648438 0.566406 -3.71875 0.546875 -3.78125 C 0.523438 -3.84375 0.515625 -3.929688 0.515625 -4.046875 C 0.503906 -4.066406 0.5 -4.101562 0.5 -4.15625 C 0.5 -4.21875 0.488281 -4.289062 0.46875 -4.375 L 0.46875 -4.515625 C 0.46875 -4.554688 0.46875 -4.609375 0.46875 -4.671875 C 0.476562 -4.742188 0.492188 -4.851562 0.515625 -5 C 0.554688 -5.257812 0.59375 -5.488281 0.625 -5.6875 C 0.65625 -5.882812 0.695312 -6.050781 0.75 -6.1875 L 0.84375 -6.53125 L 1.015625 -6.921875 C 1.085938 -7.066406 1.132812 -7.171875 1.15625 -7.234375 C 1.175781 -7.296875 1.195312 -7.328125 1.21875 -7.328125 C 1.238281 -7.328125 1.269531 -7.363281 1.3125 -7.4375 C 1.351562 -7.507812 1.394531 -7.570312 1.4375 -7.625 C 1.488281 -7.675781 1.535156 -7.726562 1.578125 -7.78125 C 1.628906 -7.832031 1.65625 -7.863281 1.65625 -7.875 L 1.640625 -7.890625 C 1.640625 -7.910156 1.65625 -7.941406 1.6875 -7.984375 C 1.726562 -8.023438 1.773438 -8.070312 1.828125 -8.125 C 1.878906 -8.175781 1.929688 -8.222656 1.984375 -8.265625 C 2.046875 -8.316406 2.097656 -8.359375 2.140625 -8.390625 C 2.429688 -8.578125 2.742188 -8.753906 3.078125 -8.921875 C 3.421875 -9.085938 3.773438 -9.253906 4.140625 -9.421875 C 4.472656 -9.554688 4.707031 -9.625 4.84375 -9.625 L 4.875 -9.625 C 4.925781 -9.625 4.972656 -9.625 5.015625 -9.625 C 5.066406 -9.632812 5.113281 -9.644531 5.15625 -9.65625 C 5.269531 -9.675781 5.382812 -9.6875 5.5 -9.6875 C 5.613281 -9.695312 5.691406 -9.703125 5.734375 -9.703125 C 5.773438 -9.710938 5.828125 -9.71875 5.890625 -9.71875 C 6.054688 -9.71875 6.296875 -9.671875 6.609375 -9.578125 C 6.691406 -9.546875 6.8125 -9.515625 6.96875 -9.484375 C 7.132812 -9.460938 7.257812 -9.453125 7.34375 -9.453125 C 7.363281 -9.453125 7.445312 -9.414062 7.59375 -9.34375 C 7.664062 -9.300781 7.726562 -9.269531 7.78125 -9.25 C 7.832031 -9.226562 7.875 -9.207031 7.90625 -9.1875 C 7.976562 -9.164062 8.050781 -9.128906 8.125 -9.078125 C 8.195312 -9.023438 8.273438 -8.96875 8.359375 -8.90625 C 8.421875 -8.84375 8.472656 -8.8125 8.515625 -8.8125 C 8.523438 -8.8125 8.539062 -8.8125 8.5625 -8.8125 C 8.582031 -8.8125 8.613281 -8.78125 8.65625 -8.71875 C 8.707031 -8.644531 8.753906 -8.597656 8.796875 -8.578125 C 8.847656 -8.554688 8.894531 -8.519531 8.9375 -8.46875 C 8.988281 -8.414062 9.054688 -8.375 9.140625 -8.34375 C 9.253906 -8.269531 9.335938 -8.144531 9.390625 -7.96875 C 9.410156 -7.90625 9.429688 -7.847656 9.453125 -7.796875 C 9.484375 -7.753906 9.507812 -7.707031 9.53125 -7.65625 L 9.671875 -7.40625 C 9.953125 -6.84375 10.09375 -6.488281 10.09375 -6.34375 C 10.09375 -6.269531 10.171875 -5.984375 10.328125 -5.484375 C 10.367188 -5.335938 10.398438 -5.164062 10.421875 -4.96875 C 10.453125 -4.769531 10.472656 -4.546875 10.484375 -4.296875 C 10.484375 -4.066406 10.472656 -3.914062 10.453125 -3.84375 L 10.4375 -3.75 L 10.46875 -3.59375 C 10.46875 -3.550781 10.441406 -3.492188 10.390625 -3.421875 L 10.375 -3.359375 C 10.375 -3.335938 10.378906 -3.304688 10.390625 -3.265625 C 10.410156 -3.222656 10.421875 -3.164062 10.421875 -3.09375 C 10.421875 -2.945312 10.394531 -2.875 10.34375 -2.875 C 10.332031 -2.875 10.328125 -2.832031 10.328125 -2.75 C 10.328125 -2.675781 10.3125 -2.59375 10.28125 -2.5 C 10.226562 -2.34375 10.203125 -2.234375 10.203125 -2.171875 L 10.203125 -2.125 C 10.203125 -2.09375 10.171875 -2.03125 10.109375 -1.9375 C 10.054688 -1.851562 10.03125 -1.789062 10.03125 -1.75 C 10.03125 -1.707031 10.015625 -1.628906 9.984375 -1.515625 C 9.953125 -1.429688 9.9375 -1.375 9.9375 -1.34375 C 9.9375 -1.300781 9.9375 -1.269531 9.9375 -1.25 C 9.945312 -1.238281 9.945312 -1.234375 9.9375 -1.234375 C 9.9375 -1.234375 9.910156 -1.234375 9.859375 -1.234375 C 9.722656 -1.234375 9.65625 -1.210938 9.65625 -1.171875 L 9.78125 -1.109375 C 9.820312 -1.109375 9.84375 -1.097656 9.84375 -1.078125 C 9.84375 -1.035156 9.773438 -1.015625 9.640625 -1.015625 C 9.566406 -1.015625 9.53125 -1.050781 9.53125 -1.125 L 9.5 -1.0625 L 9.484375 -1.015625 L 9.46875 -0.859375 C 9.445312 -0.785156 9.410156 -0.742188 9.359375 -0.734375 C 9.304688 -0.722656 9.273438 -0.691406 9.265625 -0.640625 C 9.191406 -0.523438 9.117188 -0.453125 9.046875 -0.421875 C 8.984375 -0.390625 8.921875 -0.34375 8.859375 -0.28125 C 8.796875 -0.226562 8.691406 -0.203125 8.546875 -0.203125 L 8.359375 -0.203125 C 8.296875 -0.203125 8.242188 -0.191406 8.203125 -0.171875 C 8.171875 -0.148438 8.140625 -0.117188 8.109375 -0.078125 C 8.078125 -0.0234375 8.054688 0 8.046875 0 C 8.035156 0 8.023438 -0.0078125 8.015625 -0.03125 C 8.015625 -0.0507812 8.003906 -0.0703125 7.984375 -0.09375 C 7.972656 -0.125 7.945312 -0.140625 7.90625 -0.140625 L 7.859375 -0.15625 C 7.859375 -0.175781 7.867188 -0.1875 7.890625 -0.1875 C 7.921875 -0.1875 7.9375 -0.191406 7.9375 -0.203125 C 7.945312 -0.210938 7.929688 -0.226562 7.890625 -0.25 L 7.859375 -0.265625 C 7.828125 -0.265625 7.78125 -0.265625 7.71875 -0.265625 C 7.65625 -0.273438 7.585938 -0.28125 7.515625 -0.28125 C 7.441406 -0.28125 7.378906 -0.273438 7.328125 -0.265625 C 7.273438 -0.265625 7.242188 -0.257812 7.234375 -0.25 C 7.203125 -0.207031 7.140625 -0.1875 7.046875 -0.1875 C 6.960938 -0.1875 6.90625 -0.175781 6.875 -0.15625 C 6.851562 -0.132812 6.820312 -0.125 6.78125 -0.125 L 6.734375 -0.125 C 6.660156 -0.125 6.597656 -0.0859375 6.546875 -0.015625 L 6.515625 0 L 6.4375 -0.03125 L 6.3125 0 L 6.265625 -0.03125 C 6.242188 -0.03125 6.226562 -0.0195312 6.21875 0 C 6.21875 0.03125 6.179688 0.0546875 6.109375 0.078125 C 6.046875 0.0976562 5.972656 0.113281 5.890625 0.125 C 5.816406 0.132812 5.75 0.140625 5.6875 0.140625 C 5.550781 0.140625 5.484375 0.117188 5.484375 0.078125 L 5.5 0.03125 C 5.5 0.0195312 5.472656 0.0078125 5.421875 0 C 5.390625 0 5.347656 0 5.296875 0 C 5.253906 0 5.207031 -0.00390625 5.15625 -0.015625 L 5.015625 -0.03125 C 4.992188 -0.03125 4.984375 -0.0234375 4.984375 -0.015625 C 4.984375 0.0351562 5.03125 0.0625 5.125 0.0625 L 5.234375 0.046875 C 5.265625 0.046875 5.28125 0.0507812 5.28125 0.0625 C 5.257812 0.0703125 5.242188 0.078125 5.234375 0.078125 C 5.222656 0.0859375 5.207031 0.101562 5.1875 0.125 Z M 5.671875 -2.828125 C 5.898438 -2.828125 6.15625 -2.894531 6.4375 -3.03125 C 6.582031 -3.101562 6.6875 -3.144531 6.75 -3.15625 C 6.820312 -3.175781 6.875 -3.203125 6.90625 -3.234375 C 7.101562 -3.390625 7.253906 -3.597656 7.359375 -3.859375 C 7.472656 -4.128906 7.546875 -4.378906 7.578125 -4.609375 C 7.597656 -4.765625 7.601562 -4.898438 7.59375 -5.015625 C 7.59375 -5.140625 7.582031 -5.242188 7.5625 -5.328125 C 7.550781 -5.367188 7.539062 -5.410156 7.53125 -5.453125 C 7.519531 -5.503906 7.5 -5.554688 7.46875 -5.609375 C 7.40625 -5.722656 7.359375 -5.84375 7.328125 -5.96875 C 7.222656 -6.28125 7.03125 -6.503906 6.75 -6.640625 C 6.476562 -6.785156 6.1875 -6.859375 5.875 -6.859375 C 5.445312 -6.859375 5.101562 -6.785156 4.84375 -6.640625 C 4.59375 -6.492188 4.332031 -6.273438 4.0625 -5.984375 C 3.894531 -5.785156 3.8125 -5.65625 3.8125 -5.59375 C 3.8125 -5.53125 3.789062 -5.472656 3.75 -5.421875 C 3.707031 -5.378906 3.679688 -5.351562 3.671875 -5.34375 L 3.640625 -5.34375 C 3.585938 -5.34375 3.550781 -5.28125 3.53125 -5.15625 C 3.519531 -5.132812 3.515625 -4.945312 3.515625 -4.59375 L 3.53125 -4.078125 L 3.640625 -3.90625 C 3.742188 -3.769531 3.875 -3.632812 4.03125 -3.5 C 4.1875 -3.375 4.351562 -3.257812 4.53125 -3.15625 C 4.71875 -3.050781 4.90625 -2.96875 5.09375 -2.90625 C 5.289062 -2.851562 5.484375 -2.828125 5.671875 -2.828125 Z M 10.3125 -2.953125 C 10.320312 -2.953125 10.332031 -2.957031 10.34375 -2.96875 C 10.351562 -2.988281 10.359375 -3.015625 10.359375 -3.046875 C 10.359375 -3.054688 10.347656 -3.0625 10.328125 -3.0625 C 10.296875 -3.0625 10.28125 -3.039062 10.28125 -3 C 10.28125 -2.96875 10.289062 -2.953125 10.3125 -2.953125 Z M 10.3125 -2.953125 "/></g></g></g><g fill="#ffffff" fill-opacity="1"><g transform="translate(103.112632, 84.540907)"><g><path d="M 5.015625 0.203125 C 4.878906 0.203125 4.765625 0.195312 4.671875 0.1875 C 4.578125 0.175781 4.460938 0.160156 4.328125 0.140625 C 4.191406 0.117188 4.03125 0.0820312 3.84375 0.03125 C 3.726562 0 3.644531 -0.03125 3.59375 -0.0625 C 3.539062 -0.09375 3.453125 -0.128906 3.328125 -0.171875 C 3.054688 -0.253906 2.796875 -0.363281 2.546875 -0.5 C 2.304688 -0.644531 2.085938 -0.800781 1.890625 -0.96875 C 1.765625 -1.082031 1.660156 -1.175781 1.578125 -1.25 C 1.492188 -1.320312 1.421875 -1.394531 1.359375 -1.46875 C 1.304688 -1.539062 1.25 -1.617188 1.1875 -1.703125 C 1.132812 -1.796875 1.066406 -1.90625 0.984375 -2.03125 C 0.960938 -2.070312 0.925781 -2.125 0.875 -2.1875 C 0.832031 -2.257812 0.785156 -2.34375 0.734375 -2.4375 C 0.660156 -2.519531 0.609375 -2.617188 0.578125 -2.734375 C 0.546875 -2.859375 0.519531 -2.941406 0.5 -2.984375 L 0.484375 -3.046875 C 0.484375 -3.054688 0.484375 -3.0625 0.484375 -3.0625 L 0.5625 -3.078125 C 0.632812 -3.097656 0.671875 -3.148438 0.671875 -3.234375 C 0.671875 -3.335938 0.648438 -3.414062 0.609375 -3.46875 C 0.566406 -3.519531 0.539062 -3.601562 0.53125 -3.71875 C 0.53125 -3.832031 0.519531 -3.972656 0.5 -4.140625 C 0.476562 -4.296875 0.46875 -4.460938 0.46875 -4.640625 C 0.46875 -4.710938 0.46875 -4.828125 0.46875 -4.984375 C 0.476562 -5.140625 0.507812 -5.378906 0.5625 -5.703125 L 0.625 -6.1875 C 0.632812 -6.257812 0.644531 -6.34375 0.65625 -6.4375 C 0.664062 -6.539062 0.695312 -6.65625 0.75 -6.78125 C 0.769531 -6.851562 0.789062 -6.929688 0.8125 -7.015625 C 0.84375 -7.109375 0.867188 -7.207031 0.890625 -7.3125 C 0.921875 -7.425781 0.945312 -7.523438 0.96875 -7.609375 C 1 -7.691406 1.023438 -7.757812 1.046875 -7.8125 C 1.078125 -7.875 1.109375 -7.9375 1.140625 -8 C 1.179688 -8.0625 1.234375 -8.140625 1.296875 -8.234375 C 1.347656 -8.335938 1.398438 -8.421875 1.453125 -8.484375 C 1.503906 -8.546875 1.539062 -8.597656 1.5625 -8.640625 C 1.59375 -8.691406 1.617188 -8.738281 1.640625 -8.78125 C 1.671875 -8.820312 1.695312 -8.851562 1.71875 -8.875 C 1.800781 -8.945312 2.054688 -9.085938 2.484375 -9.296875 C 3.148438 -9.578125 3.53125 -9.71875 3.625 -9.71875 L 4.0625 -9.6875 C 4.113281 -9.675781 4.179688 -9.671875 4.265625 -9.671875 C 4.347656 -9.671875 4.445312 -9.671875 4.5625 -9.671875 C 4.644531 -9.660156 4.726562 -9.65625 4.8125 -9.65625 C 4.90625 -9.65625 5 -9.644531 5.09375 -9.625 L 5.453125 -9.625 L 5.5 -9.640625 C 5.53125 -9.640625 5.570312 -9.625 5.625 -9.59375 C 5.6875 -9.53125 5.84375 -9.488281 6.09375 -9.46875 C 6.289062 -9.4375 6.46875 -9.421875 6.625 -9.421875 C 6.78125 -9.421875 6.925781 -9.4375 7.0625 -9.46875 C 7.207031 -9.5 7.351562 -9.515625 7.5 -9.515625 C 7.632812 -9.515625 7.769531 -9.5 7.90625 -9.46875 C 8.039062 -9.4375 8.109375 -9.421875 8.109375 -9.421875 C 8.117188 -9.421875 8.117188 -9.398438 8.109375 -9.359375 L 8.09375 -9.3125 C 8.09375 -9.28125 8.132812 -9.265625 8.21875 -9.265625 L 8.203125 -9.1875 C 8.191406 -9.132812 8.179688 -9.09375 8.171875 -9.0625 C 8.160156 -9.03125 8.128906 -9.003906 8.078125 -8.984375 C 8.003906 -8.960938 7.96875 -8.90625 7.96875 -8.8125 C 7.96875 -8.757812 7.976562 -8.722656 8 -8.703125 C 8.019531 -8.691406 8.046875 -8.679688 8.078125 -8.671875 C 8.109375 -8.671875 8.148438 -8.660156 8.203125 -8.640625 C 8.296875 -8.640625 8.375 -8.625 8.4375 -8.59375 C 8.664062 -8.476562 8.78125 -8.351562 8.78125 -8.21875 C 8.78125 -8.144531 8.738281 -8.085938 8.65625 -8.046875 C 8.644531 -8.035156 8.640625 -8.015625 8.640625 -7.984375 L 8.671875 -7.625 C 8.671875 -7.582031 8.738281 -7.445312 8.875 -7.21875 C 8.875 -7.207031 8.898438 -7.1875 8.953125 -7.15625 C 9.015625 -7.132812 9.054688 -7.097656 9.078125 -7.046875 C 9.097656 -7.003906 9.113281 -6.9375 9.125 -6.84375 C 9.132812 -6.75 9.140625 -6.617188 9.140625 -6.453125 C 9.140625 -6.390625 9.132812 -6.335938 9.125 -6.296875 C 9.113281 -6.253906 9.101562 -6.21875 9.09375 -6.1875 C 9.082031 -6.144531 9.0625 -6.125 9.03125 -6.125 L 8.71875 -6.28125 C 8.488281 -6.175781 8.203125 -6.113281 7.859375 -6.09375 C 7.710938 -6.09375 7.59375 -6.097656 7.5 -6.109375 C 7.414062 -6.117188 7.347656 -6.128906 7.296875 -6.140625 C 7.242188 -6.160156 7.203125 -6.175781 7.171875 -6.1875 C 7.140625 -6.195312 7.101562 -6.203125 7.0625 -6.203125 C 6.894531 -6.222656 6.785156 -6.265625 6.734375 -6.328125 C 6.691406 -6.390625 6.648438 -6.425781 6.609375 -6.4375 C 6.566406 -6.457031 6.519531 -6.476562 6.46875 -6.5 C 6.363281 -6.539062 6.253906 -6.597656 6.140625 -6.671875 C 6.035156 -6.742188 5.945312 -6.78125 5.875 -6.78125 C 5.832031 -6.78125 5.789062 -6.785156 5.75 -6.796875 C 5.71875 -6.816406 5.679688 -6.832031 5.640625 -6.84375 C 5.609375 -6.863281 5.5625 -6.875 5.5 -6.875 C 5.4375 -6.882812 5.351562 -6.882812 5.25 -6.875 C 5.113281 -6.851562 4.988281 -6.835938 4.875 -6.828125 C 4.757812 -6.828125 4.664062 -6.8125 4.59375 -6.78125 C 4.582031 -6.78125 4.578125 -6.773438 4.578125 -6.765625 L 4.59375 -6.671875 L 4.59375 -6.53125 L 4.46875 -6.5 C 4.414062 -6.488281 4.375 -6.484375 4.34375 -6.484375 C 4.3125 -6.484375 4.28125 -6.484375 4.25 -6.484375 L 4.203125 -6.484375 C 4.109375 -6.484375 4.046875 -6.4375 4.015625 -6.34375 L 3.8125 -5.984375 C 3.757812 -5.910156 3.71875 -5.847656 3.6875 -5.796875 C 3.65625 -5.753906 3.628906 -5.710938 3.609375 -5.671875 C 3.597656 -5.640625 3.585938 -5.601562 3.578125 -5.5625 C 3.578125 -5.519531 3.570312 -5.46875 3.5625 -5.40625 L 3.53125 -5 C 3.519531 -4.9375 3.515625 -4.875 3.515625 -4.8125 C 3.515625 -4.738281 3.515625 -4.675781 3.515625 -4.625 C 3.523438 -4.570312 3.53125 -4.53125 3.53125 -4.5 C 3.53125 -4.46875 3.519531 -4.445312 3.5 -4.4375 C 3.476562 -4.4375 3.46875 -4.332031 3.46875 -4.125 C 3.507812 -3.757812 3.539062 -3.578125 3.5625 -3.578125 C 3.582031 -3.578125 3.601562 -3.539062 3.625 -3.46875 C 3.675781 -3.28125 3.785156 -3.132812 3.953125 -3.03125 C 4.117188 -2.9375 4.273438 -2.890625 4.421875 -2.890625 C 4.503906 -2.890625 4.59375 -2.867188 4.6875 -2.828125 C 4.78125 -2.796875 4.882812 -2.78125 5 -2.78125 C 5.207031 -2.78125 5.332031 -2.726562 5.375 -2.625 C 5.40625 -2.625 5.453125 -2.640625 5.515625 -2.671875 C 5.578125 -2.703125 5.6875 -2.71875 5.84375 -2.71875 C 5.988281 -2.71875 6.082031 -2.722656 6.125 -2.734375 C 6.164062 -2.753906 6.21875 -2.816406 6.28125 -2.921875 C 6.3125 -2.960938 6.34375 -2.988281 6.375 -3 C 6.414062 -3.019531 6.445312 -3.03125 6.46875 -3.03125 C 6.5 -3.03125 6.523438 -3.03125 6.546875 -3.03125 C 6.566406 -3.039062 6.59375 -3.050781 6.625 -3.0625 C 6.675781 -3.082031 6.707031 -3.125 6.71875 -3.1875 C 6.738281 -3.257812 6.773438 -3.304688 6.828125 -3.328125 C 7.265625 -3.453125 7.539062 -3.550781 7.65625 -3.625 C 7.820312 -3.75 7.960938 -3.847656 8.078125 -3.921875 C 8.191406 -4.003906 8.289062 -4.054688 8.375 -4.078125 C 8.488281 -4.117188 8.550781 -4.144531 8.5625 -4.15625 C 8.625 -4.207031 8.695312 -4.257812 8.78125 -4.3125 C 8.875 -4.375 8.976562 -4.40625 9.09375 -4.40625 L 9.25 -4.40625 L 9.203125 -4.328125 C 9.148438 -4.242188 9.113281 -4.179688 9.09375 -4.140625 C 9.082031 -4.097656 9.066406 -4.078125 9.046875 -4.078125 C 9.003906 -4.078125 8.984375 -4.050781 8.984375 -4 C 8.984375 -3.894531 9.019531 -3.816406 9.09375 -3.765625 C 9.113281 -3.765625 9.132812 -3.628906 9.15625 -3.359375 C 9.039062 -3.242188 8.984375 -3.097656 8.984375 -2.921875 C 8.984375 -2.804688 8.960938 -2.710938 8.921875 -2.640625 C 8.890625 -2.578125 8.859375 -2.503906 8.828125 -2.421875 C 8.765625 -2.234375 8.703125 -2.125 8.640625 -2.09375 C 8.617188 -2.082031 8.609375 -2.066406 8.609375 -2.046875 L 8.640625 -1.9375 C 8.578125 -1.882812 8.539062 -1.859375 8.53125 -1.859375 L 8.421875 -1.703125 C 8.304688 -1.566406 8.25 -1.476562 8.25 -1.4375 L 8.171875 -1.296875 C 8.128906 -1.234375 8.09375 -1.179688 8.0625 -1.140625 C 8.03125 -1.109375 8.007812 -1.085938 8 -1.078125 C 7.976562 -1.046875 7.953125 -1.007812 7.921875 -0.96875 C 7.898438 -0.9375 7.867188 -0.898438 7.828125 -0.859375 C 7.734375 -0.773438 7.675781 -0.71875 7.65625 -0.6875 C 7.632812 -0.664062 7.601562 -0.648438 7.5625 -0.640625 C 7.539062 -0.640625 7.515625 -0.617188 7.484375 -0.578125 C 7.460938 -0.546875 7.4375 -0.507812 7.40625 -0.46875 L 7.328125 -0.328125 C 7.171875 -0.265625 7.066406 -0.203125 7.015625 -0.140625 C 6.960938 -0.0859375 6.910156 -0.0625 6.859375 -0.0625 L 6.78125 -0.078125 C 6.738281 -0.117188 6.695312 -0.140625 6.65625 -0.140625 C 6.625 -0.140625 6.59375 -0.125 6.5625 -0.09375 C 6.539062 -0.0625 6.507812 -0.0351562 6.46875 -0.015625 C 6.4375 0.00390625 6.390625 0.015625 6.328125 0.015625 C 6.253906 0.015625 6.195312 0.03125 6.15625 0.0625 C 6.125 0.09375 6.050781 0.113281 5.9375 0.125 C 5.84375 0.125 5.703125 0.132812 5.515625 0.15625 C 5.335938 0.1875 5.171875 0.203125 5.015625 0.203125 Z M 8.40625 -3.796875 C 8.425781 -3.796875 8.453125 -3.8125 8.484375 -3.84375 C 8.523438 -3.882812 8.566406 -3.914062 8.609375 -3.9375 C 8.648438 -3.96875 8.710938 -4.007812 8.796875 -4.0625 C 8.972656 -4.195312 9.0625 -4.289062 9.0625 -4.34375 L 9.046875 -4.28125 C 9.003906 -4.257812 8.941406 -4.226562 8.859375 -4.1875 C 8.785156 -4.15625 8.6875 -4.101562 8.5625 -4.03125 L 8.328125 -3.84375 L 8.34375 -3.84375 C 8.363281 -3.8125 8.382812 -3.796875 8.40625 -3.796875 Z M 7.90625 -3.609375 C 7.925781 -3.609375 7.960938 -3.632812 8.015625 -3.6875 C 8.066406 -3.738281 8.097656 -3.765625 8.109375 -3.765625 L 7.921875 -3.703125 C 7.878906 -3.703125 7.859375 -3.695312 7.859375 -3.6875 L 7.859375 -3.640625 Z M 4.5 0.09375 C 4.46875 0.09375 4.410156 0.0859375 4.328125 0.078125 C 4.242188 0.0664062 4.191406 0.046875 4.171875 0.015625 L 4.46875 0.03125 C 4.5 0.0625 4.519531 0.078125 4.53125 0.078125 C 4.53125 0.0859375 4.519531 0.09375 4.5 0.09375 Z M 8.921875 -7.4375 C 8.867188 -7.4375 8.828125 -7.457031 8.796875 -7.5 C 8.796875 -7.539062 8.789062 -7.566406 8.78125 -7.578125 L 8.78125 -7.625 L 8.828125 -7.609375 C 8.890625 -7.585938 8.929688 -7.546875 8.953125 -7.484375 C 8.953125 -7.460938 8.945312 -7.453125 8.9375 -7.453125 C 8.9375 -7.453125 8.929688 -7.445312 8.921875 -7.4375 Z M 3.609375 -4.40625 C 3.566406 -4.40625 3.546875 -4.609375 3.546875 -5.015625 L 3.546875 -5.078125 C 3.554688 -5.078125 3.570312 -5.050781 3.59375 -5 C 3.59375 -4.988281 3.59375 -4.957031 3.59375 -4.90625 C 3.59375 -4.863281 3.601562 -4.800781 3.625 -4.71875 L 3.640625 -4.53125 C 3.640625 -4.457031 3.628906 -4.414062 3.609375 -4.40625 Z M 3.609375 -4.40625 "/></g></g></g><g fill="#ffffff" fill-opacity="1"><g transform="translate(114.709054, 84.540907)"><g><path d="M 6.65625 0.921875 C 6.570312 0.921875 6.507812 0.878906 6.46875 0.796875 L 6.328125 0.515625 L 6.234375 0.265625 C 6.203125 0.171875 6.160156 0.0664062 6.109375 -0.046875 C 6.054688 -0.171875 6.015625 -0.300781 5.984375 -0.4375 C 5.953125 -0.613281 5.910156 -0.738281 5.859375 -0.8125 C 5.835938 -0.832031 5.804688 -0.890625 5.765625 -0.984375 C 5.734375 -1.085938 5.710938 -1.160156 5.703125 -1.203125 C 5.648438 -1.304688 5.625 -1.382812 5.625 -1.4375 C 5.625 -1.539062 5.59375 -1.613281 5.53125 -1.65625 C 5.519531 -1.6875 5.46875 -1.703125 5.375 -1.703125 C 5.332031 -1.703125 5.285156 -1.703125 5.234375 -1.703125 C 5.191406 -1.703125 5.148438 -1.695312 5.109375 -1.6875 C 4.847656 -1.644531 4.5625 -1.550781 4.25 -1.40625 C 4.164062 -1.375 4.066406 -1.359375 3.953125 -1.359375 C 3.835938 -1.359375 3.769531 -1.320312 3.75 -1.25 C 3.726562 -1.1875 3.6875 -1.15625 3.625 -1.15625 L 3.578125 -1.15625 C 3.515625 -1.15625 3.484375 -1.148438 3.484375 -1.140625 C 3.484375 -1.128906 3.46875 -1.113281 3.4375 -1.09375 L 3.421875 -1.09375 C 3.367188 -1.09375 3.34375 -1.125 3.34375 -1.1875 C 3.34375 -1.25 3.3125 -1.296875 3.25 -1.328125 C 3.195312 -1.367188 3.144531 -1.390625 3.09375 -1.390625 C 3.050781 -1.390625 3.023438 -1.382812 3.015625 -1.375 C 3.015625 -1.363281 3.015625 -1.335938 3.015625 -1.296875 C 2.992188 -1.109375 2.976562 -1.003906 2.96875 -0.984375 L 2.984375 -1.390625 C 2.984375 -1.421875 2.972656 -1.4375 2.953125 -1.4375 C 2.910156 -1.4375 2.890625 -1.398438 2.890625 -1.328125 L 2.890625 -1.265625 C 2.890625 -1.234375 2.890625 -1.15625 2.890625 -1.03125 C 2.890625 -0.914062 2.898438 -0.765625 2.921875 -0.578125 L 2.921875 0.015625 L 2.84375 0.078125 L 2.734375 0.09375 C 2.679688 0.09375 2.632812 0.0703125 2.59375 0.03125 C 2.550781 0 2.5 -0.015625 2.4375 -0.015625 L 2.375 0 C 2.289062 0 2.222656 -0.0234375 2.171875 -0.078125 C 2.128906 -0.128906 2.09375 -0.15625 2.0625 -0.15625 L 2 -0.171875 C 1.96875 -0.171875 1.941406 -0.148438 1.921875 -0.109375 C 1.898438 -0.0664062 1.878906 -0.046875 1.859375 -0.046875 C 1.804688 -0.046875 1.78125 -0.03125 1.78125 0 C 1.78125 0.0390625 1.757812 0.0859375 1.71875 0.140625 C 1.6875 0.191406 1.664062 0.21875 1.65625 0.21875 C 1.644531 0.175781 1.628906 0.144531 1.609375 0.125 C 1.585938 0.0507812 1.570312 0.015625 1.5625 0.015625 C 1.550781 0.015625 1.515625 0.0703125 1.453125 0.1875 C 1.398438 0.3125 1.367188 0.375 1.359375 0.375 C 1.347656 0.375 1.300781 0.347656 1.21875 0.296875 C 1.1875 0.335938 1.144531 0.359375 1.09375 0.359375 C 1.070312 0.359375 1.015625 0.34375 0.921875 0.3125 L 0.921875 0.4375 C 0.921875 0.53125 0.90625 0.585938 0.875 0.609375 C 0.851562 0.628906 0.816406 0.640625 0.765625 0.640625 L 0.671875 0.625 L 0.46875 0.828125 C 0.351562 0.828125 0.296875 0.613281 0.296875 0.1875 C 0.296875 -0.125 0.316406 -0.320312 0.359375 -0.40625 C 0.410156 -0.5 0.4375 -0.597656 0.4375 -0.703125 C 0.4375 -0.773438 0.421875 -0.867188 0.390625 -0.984375 L 0.375 -1.15625 C 0.375 -1.238281 0.414062 -1.28125 0.5 -1.28125 C 0.59375 -1.28125 0.640625 -1.367188 0.640625 -1.546875 C 0.640625 -1.722656 0.671875 -2.050781 0.734375 -2.53125 C 0.753906 -2.6875 0.773438 -2.84375 0.796875 -3 C 0.816406 -3.164062 0.851562 -3.34375 0.90625 -3.53125 C 0.925781 -3.6875 0.953125 -3.828125 0.984375 -3.953125 C 1.015625 -4.085938 1.039062 -4.210938 1.0625 -4.328125 C 1.144531 -4.710938 1.222656 -5.0625 1.296875 -5.375 C 1.378906 -5.695312 1.460938 -5.984375 1.546875 -6.234375 C 1.585938 -6.347656 1.644531 -6.453125 1.71875 -6.546875 C 1.789062 -6.640625 1.835938 -6.722656 1.859375 -6.796875 C 1.878906 -6.835938 1.890625 -6.882812 1.890625 -6.9375 C 1.898438 -6.988281 1.914062 -7.050781 1.9375 -7.125 C 1.976562 -7.226562 2.003906 -7.3125 2.015625 -7.375 C 2.023438 -7.445312 2.039062 -7.507812 2.0625 -7.5625 C 2.113281 -7.757812 2.160156 -7.875 2.203125 -7.90625 C 2.253906 -7.945312 2.28125 -7.992188 2.28125 -8.046875 C 2.300781 -8.273438 2.359375 -8.453125 2.453125 -8.578125 C 2.410156 -8.710938 2.390625 -8.796875 2.390625 -8.828125 C 2.390625 -8.859375 2.394531 -8.882812 2.40625 -8.90625 C 2.425781 -8.9375 2.4375 -8.957031 2.4375 -8.96875 C 2.4375 -8.976562 2.4375 -8.984375 2.4375 -8.984375 C 2.445312 -8.984375 2.46875 -9.007812 2.5 -9.0625 C 2.53125 -9.113281 2.546875 -9.148438 2.546875 -9.171875 C 2.546875 -9.179688 2.539062 -9.1875 2.53125 -9.1875 L 2.4375 -9.15625 C 2.414062 -9.15625 2.40625 -9.179688 2.40625 -9.234375 C 2.40625 -9.253906 2.425781 -9.296875 2.46875 -9.359375 C 2.507812 -9.421875 2.546875 -9.460938 2.578125 -9.484375 L 2.609375 -9.53125 L 2.65625 -9.5 C 2.707031 -9.476562 2.742188 -9.441406 2.765625 -9.390625 C 2.785156 -9.335938 2.796875 -9.296875 2.796875 -9.265625 C 2.796875 -9.242188 2.804688 -9.234375 2.828125 -9.234375 L 3.046875 -9.265625 L 3.078125 -9.265625 C 3.097656 -9.265625 3.125 -9.273438 3.15625 -9.296875 C 3.1875 -9.328125 3.238281 -9.363281 3.3125 -9.40625 C 3.46875 -9.46875 3.671875 -9.5 3.921875 -9.5 C 4.015625 -9.5 4.09375 -9.507812 4.15625 -9.53125 C 4.21875 -9.550781 4.289062 -9.5625 4.375 -9.5625 L 4.453125 -9.5625 C 4.503906 -9.5625 4.550781 -9.566406 4.59375 -9.578125 C 4.644531 -9.585938 4.722656 -9.617188 4.828125 -9.671875 C 5.078125 -9.796875 5.332031 -9.859375 5.59375 -9.859375 L 5.859375 -9.828125 C 6.109375 -9.796875 6.242188 -9.769531 6.265625 -9.75 C 6.285156 -9.726562 6.300781 -9.679688 6.3125 -9.609375 C 6.332031 -9.535156 6.351562 -9.457031 6.375 -9.375 C 6.394531 -9.300781 6.414062 -9.253906 6.4375 -9.234375 C 6.46875 -9.203125 6.488281 -9.164062 6.5 -9.125 C 6.507812 -9.082031 6.515625 -9.035156 6.515625 -8.984375 C 6.523438 -8.941406 6.539062 -8.894531 6.5625 -8.84375 C 6.59375 -8.71875 6.609375 -8.617188 6.609375 -8.546875 C 6.609375 -8.484375 6.628906 -8.445312 6.671875 -8.4375 C 6.722656 -8.414062 6.757812 -8.296875 6.78125 -8.078125 C 6.789062 -7.984375 6.800781 -7.878906 6.8125 -7.765625 C 6.832031 -7.660156 6.859375 -7.546875 6.890625 -7.421875 L 6.890625 -7.40625 C 6.890625 -7.375 6.875 -7.359375 6.84375 -7.359375 L 6.71875 -7.40625 L 6.78125 -7.21875 C 6.820312 -7.101562 6.84375 -7.03125 6.84375 -7 C 6.851562 -6.976562 6.863281 -6.96875 6.875 -6.96875 L 6.921875 -7.046875 L 6.890625 -7.0625 C 6.890625 -7.09375 6.90625 -7.140625 6.9375 -7.203125 L 6.9375 -7.171875 C 6.945312 -7.140625 6.953125 -7.085938 6.953125 -7.015625 L 7.03125 -6.78125 C 7.09375 -6.644531 7.128906 -6.550781 7.140625 -6.5 C 7.171875 -6.320312 7.234375 -6.132812 7.328125 -5.9375 C 7.347656 -5.894531 7.375 -5.816406 7.40625 -5.703125 C 7.445312 -5.585938 7.484375 -5.46875 7.515625 -5.34375 C 7.546875 -5.21875 7.570312 -5.101562 7.59375 -5 C 7.613281 -4.894531 7.625 -4.828125 7.625 -4.796875 C 7.625 -4.785156 7.644531 -4.75 7.6875 -4.6875 C 7.738281 -4.632812 7.765625 -4.566406 7.765625 -4.484375 C 7.765625 -4.410156 7.78125 -4.359375 7.8125 -4.328125 C 7.875 -4.253906 7.90625 -4.085938 7.90625 -3.828125 C 7.90625 -3.722656 7.890625 -3.65625 7.859375 -3.625 C 7.859375 -3.613281 7.859375 -3.59375 7.859375 -3.5625 C 7.859375 -3.539062 7.859375 -3.507812 7.859375 -3.46875 L 7.859375 -3.34375 L 7.765625 -3.671875 C 7.703125 -3.878906 7.671875 -4.007812 7.671875 -4.0625 C 7.671875 -4.113281 7.640625 -4.21875 7.578125 -4.375 C 7.492188 -4.59375 7.429688 -4.773438 7.390625 -4.921875 C 7.347656 -5.078125 7.316406 -5.191406 7.296875 -5.265625 C 7.265625 -5.523438 7.210938 -5.691406 7.140625 -5.765625 C 7.066406 -5.847656 7.023438 -5.890625 7.015625 -5.890625 L 7.015625 -5.859375 L 7.03125 -5.78125 C 7.050781 -5.675781 7.066406 -5.625 7.078125 -5.625 C 7.085938 -5.625 7.101562 -5.597656 7.125 -5.546875 C 7.195312 -5.367188 7.253906 -5.175781 7.296875 -4.96875 C 7.335938 -4.769531 7.382812 -4.554688 7.4375 -4.328125 L 7.5 -4.15625 C 7.507812 -4.132812 7.519531 -4.101562 7.53125 -4.0625 C 7.550781 -4.019531 7.566406 -3.96875 7.578125 -3.90625 C 7.628906 -3.769531 7.664062 -3.65625 7.6875 -3.5625 C 7.71875 -3.476562 7.742188 -3.421875 7.765625 -3.390625 C 7.847656 -3.222656 7.890625 -3.085938 7.890625 -2.984375 L 7.921875 -2.796875 C 7.941406 -2.722656 7.957031 -2.6875 7.96875 -2.6875 L 7.984375 -2.6875 C 8.003906 -2.6875 8.023438 -2.679688 8.046875 -2.671875 C 8.066406 -2.660156 8.085938 -2.582031 8.109375 -2.4375 C 8.109375 -2.332031 8.117188 -2.25 8.140625 -2.1875 C 8.171875 -2.132812 8.191406 -2.109375 8.203125 -2.109375 L 8.203125 -2.171875 C 8.222656 -2.171875 8.234375 -2.140625 8.234375 -2.078125 C 8.242188 -2.023438 8.253906 -1.960938 8.265625 -1.890625 C 8.273438 -1.828125 8.289062 -1.75 8.3125 -1.65625 C 8.332031 -1.550781 8.347656 -1.476562 8.359375 -1.4375 C 8.378906 -1.394531 8.394531 -1.367188 8.40625 -1.359375 C 8.414062 -1.347656 8.425781 -1.332031 8.4375 -1.3125 C 8.457031 -1.300781 8.472656 -1.273438 8.484375 -1.234375 C 8.515625 -1.148438 8.53125 -1.078125 8.53125 -1.015625 C 8.53125 -0.953125 8.554688 -0.894531 8.609375 -0.84375 C 8.691406 -0.738281 8.734375 -0.648438 8.734375 -0.578125 C 8.742188 -0.503906 8.695312 -0.460938 8.59375 -0.453125 L 8.5 -0.453125 C 8.5 -0.441406 8.507812 -0.425781 8.53125 -0.40625 L 8.53125 -0.390625 C 8.53125 -0.367188 8.519531 -0.347656 8.5 -0.328125 C 8.488281 -0.316406 8.472656 -0.3125 8.453125 -0.3125 C 8.421875 -0.3125 8.378906 -0.34375 8.328125 -0.40625 L 8.28125 -0.421875 C 8.238281 -0.421875 8.203125 -0.398438 8.171875 -0.359375 C 8.148438 -0.328125 8.128906 -0.3125 8.109375 -0.3125 C 8.097656 -0.3125 8.082031 -0.332031 8.0625 -0.375 C 8.050781 -0.414062 8.046875 -0.445312 8.046875 -0.46875 L 8.03125 -0.5 C 8.019531 -0.5 8.007812 -0.488281 8 -0.46875 C 7.988281 -0.445312 7.972656 -0.4375 7.953125 -0.4375 C 7.941406 -0.445312 7.914062 -0.453125 7.875 -0.453125 C 7.863281 -0.453125 7.84375 -0.453125 7.8125 -0.453125 C 7.789062 -0.453125 7.753906 -0.457031 7.703125 -0.46875 L 7.640625 -0.484375 C 7.554688 -0.484375 7.515625 -0.414062 7.515625 -0.28125 C 7.515625 -0.238281 7.5 -0.171875 7.46875 -0.078125 C 7.4375 0.015625 7.414062 0.0625 7.40625 0.0625 L 7.328125 0 L 7.3125 0.046875 C 7.300781 0.0664062 7.289062 0.0859375 7.28125 0.109375 C 7.28125 0.128906 7.269531 0.148438 7.25 0.171875 L 7.15625 0.3125 L 7.25 0.375 L 7.203125 0.421875 C 7.160156 0.460938 7.054688 0.484375 6.890625 0.484375 L 6.859375 0.578125 C 6.835938 0.609375 6.816406 0.640625 6.796875 0.671875 C 6.785156 0.703125 6.773438 0.722656 6.765625 0.734375 L 6.6875 0.78125 C 6.800781 0.8125 6.859375 0.835938 6.859375 0.859375 C 6.859375 0.898438 6.789062 0.921875 6.65625 0.921875 Z M 6.484375 -8.5625 C 6.503906 -8.5625 6.515625 -8.570312 6.515625 -8.59375 L 6.46875 -8.71875 C 6.445312 -8.757812 6.429688 -8.800781 6.421875 -8.84375 C 6.421875 -8.882812 6.414062 -8.921875 6.40625 -8.953125 C 6.394531 -8.972656 6.378906 -9.003906 6.359375 -9.046875 C 6.347656 -9.085938 6.335938 -9.132812 6.328125 -9.1875 C 6.285156 -9.269531 6.253906 -9.3125 6.234375 -9.3125 C 6.234375 -9.25 6.242188 -9.1875 6.265625 -9.125 C 6.296875 -9.070312 6.320312 -9 6.34375 -8.90625 C 6.375 -8.8125 6.398438 -8.734375 6.421875 -8.671875 C 6.453125 -8.609375 6.472656 -8.570312 6.484375 -8.5625 Z M 6.65625 -7.75 L 6.59375 -7.96875 C 6.53125 -8.21875 6.476562 -8.34375 6.4375 -8.34375 C 6.425781 -8.34375 6.421875 -8.328125 6.421875 -8.296875 C 6.421875 -8.273438 6.421875 -8.242188 6.421875 -8.203125 C 6.429688 -8.171875 6.445312 -8.128906 6.46875 -8.078125 C 6.488281 -8.023438 6.507812 -7.96875 6.53125 -7.90625 Z M 2.203125 -7.5 C 2.222656 -7.5 2.25 -7.546875 2.28125 -7.640625 L 2.28125 -7.703125 C 2.226562 -7.703125 2.203125 -7.640625 2.203125 -7.515625 Z M 3.734375 -3.921875 C 3.816406 -3.921875 3.921875 -3.945312 4.046875 -4 C 4.085938 -4.019531 4.148438 -4.035156 4.234375 -4.046875 C 4.316406 -4.054688 4.398438 -4.070312 4.484375 -4.09375 C 4.671875 -4.09375 4.765625 -4.113281 4.765625 -4.15625 C 4.765625 -4.207031 4.753906 -4.300781 4.734375 -4.4375 C 4.722656 -4.582031 4.703125 -4.769531 4.671875 -5 C 4.640625 -5.195312 4.554688 -5.457031 4.421875 -5.78125 C 4.328125 -5.976562 4.265625 -6.078125 4.234375 -6.078125 C 4.210938 -6.078125 4.140625 -6 4.015625 -5.84375 C 3.929688 -5.75 3.875 -5.679688 3.84375 -5.640625 C 3.8125 -5.597656 3.796875 -5.570312 3.796875 -5.5625 C 3.796875 -5.351562 3.78125 -5.15625 3.75 -4.96875 C 3.726562 -4.789062 3.695312 -4.632812 3.65625 -4.5 C 3.613281 -4.332031 3.570312 -4.179688 3.53125 -4.046875 L 3.53125 -4.03125 C 3.53125 -3.957031 3.597656 -3.921875 3.734375 -3.921875 Z M 7.796875 -3.875 C 7.828125 -3.875 7.84375 -3.9375 7.84375 -4.0625 C 7.8125 -4.125 7.789062 -4.15625 7.78125 -4.15625 C 7.78125 -4.125 7.78125 -4.066406 7.78125 -3.984375 C 7.78125 -3.910156 7.785156 -3.875 7.796875 -3.875 Z M 7.859375 -3.78125 L 7.859375 -3.828125 C 7.867188 -3.828125 7.875 -3.820312 7.875 -3.8125 Z M 7.59375 -3.078125 L 7.59375 -3.15625 L 7.515625 -3.1875 C 7.515625 -3.113281 7.539062 -3.078125 7.59375 -3.078125 Z M 7.765625 -2.4375 L 7.78125 -2.5 L 7.75 -2.859375 C 7.726562 -2.878906 7.710938 -2.890625 7.703125 -2.890625 C 7.691406 -2.890625 7.6875 -2.859375 7.6875 -2.796875 C 7.6875 -2.753906 7.695312 -2.679688 7.71875 -2.578125 C 7.738281 -2.484375 7.753906 -2.4375 7.765625 -2.4375 Z M 7.953125 -1.84375 C 7.929688 -1.976562 7.90625 -2.046875 7.875 -2.046875 L 7.875 -1.984375 L 7.921875 -1.859375 Z M 8.015625 -1.65625 L 8.015625 -1.6875 Z M 8.390625 -1 L 8.390625 -1.0625 L 8.359375 -1.03125 Z M 8.515625 -0.578125 C 8.554688 -0.609375 8.578125 -0.628906 8.578125 -0.640625 L 8.5625 -0.6875 C 8.5 -0.6875 8.46875 -0.648438 8.46875 -0.578125 Z M 7.3125 0.21875 L 7.359375 0.203125 C 7.359375 0.191406 7.347656 0.179688 7.328125 0.171875 C 7.316406 0.191406 7.3125 0.207031 7.3125 0.21875 Z M 7.3125 0.21875 "/></g></g></g><g fill="#ffffff" fill-opacity="1"><g transform="translate(125.683182, 84.540907)"><g><path d="M 2.28125 0.234375 L 2.25 0.21875 L 2.234375 0.171875 L 2.234375 0.140625 L 2.1875 -0.0625 C 2.15625 -0.0625 2.132812 -0.046875 2.125 -0.015625 C 2.125 0.015625 2.113281 0.03125 2.09375 0.03125 C 2.070312 0.03125 2.0625 0.0351562 2.0625 0.046875 L 2.03125 0.046875 C 2.019531 0.046875 1.988281 0.046875 1.9375 0.046875 C 1.882812 0.046875 1.847656 0.03125 1.828125 0 L 1.765625 -0.046875 C 1.703125 -0.00390625 1.65625 0.015625 1.625 0.015625 C 1.601562 0.015625 1.59375 -0.0078125 1.59375 -0.0625 C 1.59375 -0.113281 1.570312 -0.140625 1.53125 -0.140625 C 1.5 -0.140625 1.472656 -0.09375 1.453125 0 C 1.453125 0.03125 1.46875 0.0625 1.5 0.09375 C 1.53125 0.125 1.546875 0.144531 1.546875 0.15625 C 1.546875 0.164062 1.535156 0.171875 1.515625 0.171875 L 1.53125 0.171875 C 1.53125 0.160156 1.507812 0.144531 1.46875 0.125 C 1.4375 0.113281 1.421875 0.101562 1.421875 0.09375 L 1.421875 0.078125 C 1.421875 0.0664062 1.394531 0.046875 1.34375 0.015625 C 1.289062 -0.00390625 1.265625 -0.0195312 1.265625 -0.03125 C 1.265625 -0.09375 1.242188 -0.125 1.203125 -0.125 C 1.171875 -0.125 1.117188 -0.132812 1.046875 -0.15625 C 0.992188 -0.164062 0.957031 -0.179688 0.9375 -0.203125 C 0.914062 -0.234375 0.894531 -0.269531 0.875 -0.3125 C 0.84375 -0.375 0.816406 -0.414062 0.796875 -0.4375 C 0.773438 -0.46875 0.765625 -0.5 0.765625 -0.53125 L 0.765625 -0.5625 C 0.765625 -0.582031 0.753906 -0.59375 0.734375 -0.59375 L 0.71875 -0.59375 C 0.707031 -0.59375 0.703125 -0.617188 0.703125 -0.671875 C 0.703125 -0.722656 0.691406 -0.757812 0.671875 -0.78125 L 0.65625 -0.8125 L 0.703125 -1.046875 C 0.703125 -1.128906 0.6875 -1.191406 0.65625 -1.234375 C 0.625 -1.285156 0.609375 -1.738281 0.609375 -2.59375 L 0.625 -3.921875 C 0.625 -4.054688 0.628906 -4.160156 0.640625 -4.234375 C 0.648438 -4.316406 0.660156 -4.4375 0.671875 -4.59375 C 0.679688 -4.75 0.6875 -4.941406 0.6875 -5.171875 C 0.707031 -5.597656 0.722656 -5.820312 0.734375 -5.84375 C 0.742188 -5.875 0.75 -5.988281 0.75 -6.1875 C 0.75 -6.394531 0.757812 -6.691406 0.78125 -7.078125 C 0.78125 -7.460938 0.78125 -7.773438 0.78125 -8.015625 C 0.789062 -8.265625 0.800781 -8.4375 0.8125 -8.53125 C 0.8125 -8.644531 0.8125 -8.75 0.8125 -8.84375 C 0.8125 -8.9375 0.8125 -9.039062 0.8125 -9.15625 C 0.8125 -9.382812 0.816406 -9.507812 0.828125 -9.53125 C 0.835938 -9.5625 0.863281 -9.578125 0.90625 -9.578125 C 0.957031 -9.578125 1.023438 -9.554688 1.109375 -9.515625 C 1.191406 -9.484375 1.257812 -9.46875 1.3125 -9.46875 C 1.34375 -9.46875 1.378906 -9.484375 1.421875 -9.515625 L 1.515625 -9.46875 L 1.5625 -9.5 C 1.570312 -9.5 1.601562 -9.503906 1.65625 -9.515625 C 1.707031 -9.523438 1.757812 -9.535156 1.8125 -9.546875 C 1.875 -9.566406 1.925781 -9.582031 1.96875 -9.59375 C 2.019531 -9.601562 2.050781 -9.609375 2.0625 -9.609375 C 2.175781 -9.628906 2.273438 -9.664062 2.359375 -9.71875 C 2.441406 -9.78125 2.488281 -9.8125 2.5 -9.8125 C 2.507812 -9.8125 2.546875 -9.785156 2.609375 -9.734375 C 2.671875 -9.691406 2.75 -9.671875 2.84375 -9.671875 L 3.09375 -9.6875 C 3.238281 -9.675781 3.332031 -9.660156 3.375 -9.640625 C 3.425781 -9.617188 3.472656 -9.609375 3.515625 -9.609375 C 3.554688 -9.609375 3.601562 -9.570312 3.65625 -9.5 C 3.664062 -9.5 3.679688 -9.46875 3.703125 -9.40625 C 3.722656 -9.351562 3.757812 -9.328125 3.8125 -9.328125 L 3.890625 -9.328125 L 3.890625 -9.21875 L 3.96875 -8.96875 C 3.988281 -8.914062 4 -8.863281 4 -8.8125 C 4.007812 -8.757812 4.019531 -8.707031 4.03125 -8.65625 C 4.03125 -8.5625 4.039062 -8.503906 4.0625 -8.484375 C 4.09375 -8.460938 4.109375 -8.414062 4.109375 -8.34375 L 4.09375 -8.15625 L 4.109375 -8.03125 C 4.117188 -7.96875 4.117188 -7.875 4.109375 -7.75 C 4.109375 -7.632812 4.097656 -7.484375 4.078125 -7.296875 C 4.066406 -7.191406 4.039062 -7.078125 4 -6.953125 C 3.925781 -6.742188 3.890625 -6.554688 3.890625 -6.390625 C 3.890625 -6.335938 3.898438 -6.3125 3.921875 -6.3125 C 3.953125 -6.3125 3.96875 -6.300781 3.96875 -6.28125 C 3.96875 -6.257812 3.953125 -6.226562 3.921875 -6.1875 C 3.890625 -6.15625 3.867188 -6.070312 3.859375 -5.9375 C 3.859375 -5.800781 3.84375 -5.726562 3.8125 -5.71875 C 3.769531 -5.6875 3.75 -5.582031 3.75 -5.40625 C 3.75 -5.332031 3.742188 -5.265625 3.734375 -5.203125 C 3.734375 -5.140625 3.726562 -5.082031 3.71875 -5.03125 L 3.703125 -4.90625 C 3.703125 -4.851562 3.710938 -4.820312 3.734375 -4.8125 C 3.753906 -4.800781 3.765625 -4.785156 3.765625 -4.765625 L 3.765625 -4.609375 C 3.765625 -4.546875 3.757812 -4.507812 3.75 -4.5 L 3.734375 -4.484375 L 3.8125 -4.421875 L 3.75 -4.375 C 3.632812 -4.25 3.578125 -4.148438 3.578125 -4.078125 C 3.578125 -4.066406 3.585938 -4.0625 3.609375 -4.0625 L 3.671875 -4.0625 L 3.65625 -4.0625 C 3.65625 -4.050781 3.644531 -4.035156 3.625 -4.015625 C 3.613281 -3.992188 3.597656 -3.96875 3.578125 -3.9375 C 3.554688 -3.914062 3.546875 -3.894531 3.546875 -3.875 C 3.546875 -3.820312 3.5625 -3.796875 3.59375 -3.796875 C 3.632812 -3.796875 3.664062 -3.707031 3.6875 -3.53125 C 3.6875 -3.46875 3.679688 -3.425781 3.671875 -3.40625 C 3.617188 -3.363281 3.59375 -3.28125 3.59375 -3.15625 C 3.59375 -3.019531 3.625 -2.929688 3.6875 -2.890625 C 3.75 -2.859375 3.894531 -2.84375 4.125 -2.84375 C 4.300781 -2.84375 4.394531 -2.847656 4.40625 -2.859375 C 4.425781 -2.878906 4.664062 -2.894531 5.125 -2.90625 C 5.582031 -2.914062 5.820312 -2.929688 5.84375 -2.953125 C 5.863281 -2.972656 5.9375 -2.984375 6.0625 -2.984375 C 6.320312 -3.015625 6.484375 -3.066406 6.546875 -3.140625 C 6.554688 -3.160156 6.566406 -3.171875 6.578125 -3.171875 C 6.628906 -3.171875 6.65625 -3.160156 6.65625 -3.140625 C 6.65625 -3.117188 6.628906 -3.066406 6.578125 -2.984375 L 6.4375 -2.8125 C 6.394531 -2.78125 6.375 -2.757812 6.375 -2.75 L 6.390625 -2.75 C 6.398438 -2.75 6.421875 -2.75 6.453125 -2.75 C 6.492188 -2.757812 6.570312 -2.8125 6.6875 -2.90625 C 6.75 -2.957031 6.816406 -2.984375 6.890625 -2.984375 L 6.96875 -2.984375 C 7.007812 -2.972656 7.03125 -2.941406 7.03125 -2.890625 C 7.039062 -2.835938 7.03125 -2.796875 7 -2.765625 C 6.925781 -2.691406 6.890625 -2.632812 6.890625 -2.59375 L 7.078125 -2.6875 C 7.085938 -2.6875 7.097656 -2.664062 7.109375 -2.625 C 7.117188 -2.59375 7.148438 -2.578125 7.203125 -2.578125 C 7.253906 -2.578125 7.28125 -2.5625 7.28125 -2.53125 C 7.28125 -2.5 7.25 -2.46875 7.1875 -2.4375 C 7.125 -2.414062 7.09375 -2.390625 7.09375 -2.359375 C 7.09375 -2.335938 7.113281 -2.328125 7.15625 -2.328125 C 7.195312 -2.328125 7.242188 -2.296875 7.296875 -2.234375 C 7.347656 -2.179688 7.375 -2.109375 7.375 -2.015625 C 7.363281 -1.929688 7.34375 -1.890625 7.3125 -1.890625 C 7.28125 -1.890625 7.265625 -1.882812 7.265625 -1.875 C 7.265625 -1.863281 7.265625 -1.851562 7.265625 -1.84375 C 7.273438 -1.832031 7.296875 -1.804688 7.328125 -1.765625 L 7.359375 -1.71875 C 7.234375 -1.71875 7.171875 -1.707031 7.171875 -1.6875 C 7.171875 -1.632812 7.222656 -1.601562 7.328125 -1.59375 C 7.429688 -1.582031 7.507812 -1.578125 7.5625 -1.578125 L 7.578125 -1.5625 C 7.578125 -1.539062 7.515625 -1.53125 7.390625 -1.53125 C 7.273438 -1.53125 7.203125 -1.515625 7.171875 -1.484375 C 7.148438 -1.453125 7.140625 -1.429688 7.140625 -1.421875 C 7.140625 -1.410156 7.160156 -1.40625 7.203125 -1.40625 L 7.5625 -1.390625 C 7.5625 -1.347656 7.488281 -1.328125 7.34375 -1.328125 L 7.1875 -1.3125 C 7.1875 -1.289062 7.300781 -1.28125 7.53125 -1.28125 L 7.53125 -1.265625 L 7.5 -1.25 C 7.476562 -1.226562 7.445312 -1.207031 7.40625 -1.1875 C 7.375 -1.164062 7.351562 -1.140625 7.34375 -1.109375 C 7.363281 -1.097656 7.398438 -1.09375 7.453125 -1.09375 C 7.546875 -1.09375 7.601562 -1.082031 7.625 -1.0625 C 7.65625 -1.050781 7.671875 -1.039062 7.671875 -1.03125 C 7.671875 -1.019531 7.640625 -1.007812 7.578125 -1 C 7.535156 -1 7.503906 -1.015625 7.484375 -1.046875 L 7.46875 -1.0625 C 7.445312 -1.0625 7.421875 -1.046875 7.390625 -1.015625 C 7.359375 -0.992188 7.34375 -0.972656 7.34375 -0.953125 C 7.34375 -0.921875 7.382812 -0.90625 7.46875 -0.90625 C 7.5 -0.90625 7.519531 -0.898438 7.53125 -0.890625 L 7.453125 -0.859375 C 7.367188 -0.859375 7.3125 -0.867188 7.28125 -0.890625 L 7.234375 -0.90625 C 7.222656 -0.90625 7.21875 -0.898438 7.21875 -0.890625 L 7.3125 -0.828125 L 7.296875 -0.78125 C 7.285156 -0.769531 7.265625 -0.765625 7.234375 -0.765625 L 7.171875 -0.765625 C 7.097656 -0.765625 7.0625 -0.753906 7.0625 -0.734375 L 7.0625 -0.71875 C 7.0625 -0.695312 7.066406 -0.6875 7.078125 -0.6875 L 7.125 -0.65625 C 7.125 -0.644531 7.09375 -0.632812 7.03125 -0.625 C 6.976562 -0.625 6.953125 -0.597656 6.953125 -0.546875 C 6.941406 -0.535156 6.914062 -0.519531 6.875 -0.5 C 6.84375 -0.476562 6.8125 -0.46875 6.78125 -0.46875 L 6.625 -0.5 L 6.515625 -0.484375 C 6.472656 -0.484375 6.394531 -0.515625 6.28125 -0.578125 L 6.234375 -0.546875 C 6.210938 -0.523438 6.164062 -0.507812 6.09375 -0.5 C 6.03125 -0.488281 5.972656 -0.46875 5.921875 -0.4375 L 5.859375 -0.375 C 5.804688 -0.445312 5.765625 -0.484375 5.734375 -0.484375 C 5.722656 -0.484375 5.675781 -0.472656 5.59375 -0.453125 C 5.519531 -0.441406 5.40625 -0.410156 5.25 -0.359375 C 5.050781 -0.316406 4.867188 -0.285156 4.703125 -0.265625 C 4.546875 -0.242188 4.398438 -0.226562 4.265625 -0.21875 C 3.921875 -0.207031 3.664062 -0.175781 3.5 -0.125 L 3.421875 -0.109375 L 3.421875 -0.125 C 3.421875 -0.132812 3.429688 -0.144531 3.453125 -0.15625 L 3.46875 -0.171875 L 3.453125 -0.171875 C 3.421875 -0.171875 3.40625 -0.175781 3.40625 -0.1875 C 3.40625 -0.207031 3.394531 -0.21875 3.375 -0.21875 C 3.34375 -0.207031 3.3125 -0.203125 3.28125 -0.203125 C 3.257812 -0.203125 3.222656 -0.195312 3.171875 -0.1875 L 2.984375 -0.15625 L 2.984375 -0.109375 C 2.984375 -0.0664062 2.96875 -0.0390625 2.9375 -0.03125 L 2.84375 -0.015625 C 2.820312 -0.015625 2.8125 -0.03125 2.8125 -0.0625 C 2.8125 -0.101562 2.796875 -0.125 2.765625 -0.125 C 2.742188 -0.125 2.710938 -0.113281 2.671875 -0.09375 C 2.628906 -0.0703125 2.601562 -0.0625 2.59375 -0.0625 C 2.582031 -0.0625 2.570312 -0.0625 2.5625 -0.0625 C 2.550781 -0.0625 2.535156 -0.0507812 2.515625 -0.03125 L 2.421875 0.015625 C 2.378906 0.0234375 2.359375 0.046875 2.359375 0.078125 L 2.390625 0.15625 C 2.390625 0.207031 2.351562 0.234375 2.28125 0.234375 Z M 2.28125 0.234375 "/></g></g></g></svg>